M48
; DRILL file {KiCad (5.1.9)-1} date 02/11/24 16:08:49
; FORMAT={-:-/ absolute / metric / decimal}
; #@! TF.CreationDate,2024-02-11T16:08:49+01:00
; #@! TF.GenerationSoftware,Kicad,Pcbnew,(5.1.9)-1
; #@! TF.FileFunction,Plated,1,2,PTH
FMAT,2
METRIC
T1C0.450
T2C0.800
T3C1.000
T4C1.100
%
G90
G05
T1
X209.5Y-61.5
X212.0Y-59.0
X212.0Y-64.0
X214.5Y-61.5
T2
X209.8Y-102.9
X209.8Y-106.4
X217.42Y-102.9
X217.42Y-106.4
T3
X186.5Y-98.88
X186.5Y-106.5
X188.9Y-57.18
X188.9Y-59.72
X188.9Y-62.26
X188.9Y-64.8
X189.04Y-98.88
X189.04Y-106.5
X191.58Y-98.88
X191.58Y-106.5
X194.12Y-98.88
X194.12Y-106.5
X198.7Y-70.4
X201.24Y-70.4
X203.78Y-70.4
X206.32Y-70.4
T4
X200.25Y-99.5
X200.25Y-106.0
X204.75Y-99.5
X204.75Y-106.0
T0
M30
