G04 #@! TF.GenerationSoftware,KiCad,Pcbnew,(5.1.9)-1*
G04 #@! TF.CreationDate,2024-02-11T16:08:01+01:00*
G04 #@! TF.ProjectId,tiny_dt_0,74696e79-5f64-4745-9f30-2e6b69636164,rev?*
G04 #@! TF.SameCoordinates,Original*
G04 #@! TF.FileFunction,Legend,Bot*
G04 #@! TF.FilePolarity,Positive*
%FSLAX46Y46*%
G04 Gerber Fmt 4.6, Leading zero omitted, Abs format (unit mm)*
G04 Created by KiCad (PCBNEW (5.1.9)-1) date 2024-02-11 16:08:01*
%MOMM*%
%LPD*%
G01*
G04 APERTURE LIST*
%ADD10C,0.150000*%
%ADD11C,0.120000*%
%ADD12C,0.100000*%
G04 APERTURE END LIST*
D10*
X195477380Y-58183333D02*
X196477380Y-58516666D01*
X195477380Y-58850000D01*
X196477380Y-59659523D02*
X196477380Y-59183333D01*
X195477380Y-59183333D01*
X195477380Y-60469047D02*
X195477380Y-59992857D01*
X195953571Y-59945238D01*
X195905952Y-59992857D01*
X195858333Y-60088095D01*
X195858333Y-60326190D01*
X195905952Y-60421428D01*
X195953571Y-60469047D01*
X196048809Y-60516666D01*
X196286904Y-60516666D01*
X196382142Y-60469047D01*
X196429761Y-60421428D01*
X196477380Y-60326190D01*
X196477380Y-60088095D01*
X196429761Y-59992857D01*
X196382142Y-59945238D01*
X195477380Y-60850000D02*
X195477380Y-61469047D01*
X195858333Y-61135714D01*
X195858333Y-61278571D01*
X195905952Y-61373809D01*
X195953571Y-61421428D01*
X196048809Y-61469047D01*
X196286904Y-61469047D01*
X196382142Y-61421428D01*
X196429761Y-61373809D01*
X196477380Y-61278571D01*
X196477380Y-60992857D01*
X196429761Y-60897619D01*
X196382142Y-60850000D01*
X196477380Y-62373809D02*
X196477380Y-61897619D01*
X195477380Y-61897619D01*
X195477380Y-62897619D02*
X195477380Y-62992857D01*
X195525000Y-63088095D01*
X195572619Y-63135714D01*
X195667857Y-63183333D01*
X195858333Y-63230952D01*
X196096428Y-63230952D01*
X196286904Y-63183333D01*
X196382142Y-63135714D01*
X196429761Y-63088095D01*
X196477380Y-62992857D01*
X196477380Y-62897619D01*
X196429761Y-62802380D01*
X196382142Y-62754761D01*
X196286904Y-62707142D01*
X196096428Y-62659523D01*
X195858333Y-62659523D01*
X195667857Y-62707142D01*
X195572619Y-62754761D01*
X195525000Y-62802380D01*
X195477380Y-62897619D01*
X195477380Y-63564285D02*
X196477380Y-64230952D01*
X195477380Y-64230952D02*
X196477380Y-63564285D01*
X197460714Y-55373809D02*
X197460714Y-55754761D01*
X197127380Y-55516666D02*
X197984523Y-55516666D01*
X198079761Y-55564285D01*
X198127380Y-55659523D01*
X198127380Y-55754761D01*
X198127380Y-56088095D02*
X197460714Y-56088095D01*
X197127380Y-56088095D02*
X197175000Y-56040476D01*
X197222619Y-56088095D01*
X197175000Y-56135714D01*
X197127380Y-56088095D01*
X197222619Y-56088095D01*
X198127380Y-56564285D02*
X197460714Y-56564285D01*
X197555952Y-56564285D02*
X197508333Y-56611904D01*
X197460714Y-56707142D01*
X197460714Y-56850000D01*
X197508333Y-56945238D01*
X197603571Y-56992857D01*
X198127380Y-56992857D01*
X197603571Y-56992857D02*
X197508333Y-57040476D01*
X197460714Y-57135714D01*
X197460714Y-57278571D01*
X197508333Y-57373809D01*
X197603571Y-57421428D01*
X198127380Y-57421428D01*
X198079761Y-58278571D02*
X198127380Y-58183333D01*
X198127380Y-57992857D01*
X198079761Y-57897619D01*
X197984523Y-57850000D01*
X197603571Y-57850000D01*
X197508333Y-57897619D01*
X197460714Y-57992857D01*
X197460714Y-58183333D01*
X197508333Y-58278571D01*
X197603571Y-58326190D01*
X197698809Y-58326190D01*
X197794047Y-57850000D01*
X197746428Y-58754761D02*
X197746428Y-59516666D01*
X198127380Y-60135714D02*
X198079761Y-60040476D01*
X198032142Y-59992857D01*
X197936904Y-59945238D01*
X197651190Y-59945238D01*
X197555952Y-59992857D01*
X197508333Y-60040476D01*
X197460714Y-60135714D01*
X197460714Y-60278571D01*
X197508333Y-60373809D01*
X197555952Y-60421428D01*
X197651190Y-60469047D01*
X197936904Y-60469047D01*
X198032142Y-60421428D01*
X198079761Y-60373809D01*
X198127380Y-60278571D01*
X198127380Y-60135714D01*
X197460714Y-60754761D02*
X197460714Y-61135714D01*
X198127380Y-60897619D02*
X197270238Y-60897619D01*
X197175000Y-60945238D01*
X197127380Y-61040476D01*
X197127380Y-61135714D01*
X197746428Y-61469047D02*
X197746428Y-62230952D01*
X197460714Y-62564285D02*
X197460714Y-62945238D01*
X198127380Y-62707142D02*
X197270238Y-62707142D01*
X197175000Y-62754761D01*
X197127380Y-62850000D01*
X197127380Y-62945238D01*
X198127380Y-63421428D02*
X198079761Y-63326190D01*
X197984523Y-63278571D01*
X197127380Y-63278571D01*
X198127380Y-63802380D02*
X197460714Y-63802380D01*
X197127380Y-63802380D02*
X197175000Y-63754761D01*
X197222619Y-63802380D01*
X197175000Y-63850000D01*
X197127380Y-63802380D01*
X197222619Y-63802380D01*
X197460714Y-64707142D02*
X198270238Y-64707142D01*
X198365476Y-64659523D01*
X198413095Y-64611904D01*
X198460714Y-64516666D01*
X198460714Y-64373809D01*
X198413095Y-64278571D01*
X198079761Y-64707142D02*
X198127380Y-64611904D01*
X198127380Y-64421428D01*
X198079761Y-64326190D01*
X198032142Y-64278571D01*
X197936904Y-64230952D01*
X197651190Y-64230952D01*
X197555952Y-64278571D01*
X197508333Y-64326190D01*
X197460714Y-64421428D01*
X197460714Y-64611904D01*
X197508333Y-64707142D01*
X198127380Y-65183333D02*
X197127380Y-65183333D01*
X198127380Y-65611904D02*
X197603571Y-65611904D01*
X197508333Y-65564285D01*
X197460714Y-65469047D01*
X197460714Y-65326190D01*
X197508333Y-65230952D01*
X197555952Y-65183333D01*
X197460714Y-65945238D02*
X197460714Y-66326190D01*
X197127380Y-66088095D02*
X197984523Y-66088095D01*
X198079761Y-66135714D01*
X198127380Y-66230952D01*
X198127380Y-66326190D01*
X199777380Y-58373809D02*
X198777380Y-58373809D01*
X199729761Y-58373809D02*
X199777380Y-58278571D01*
X199777380Y-58088095D01*
X199729761Y-57992857D01*
X199682142Y-57945238D01*
X199586904Y-57897619D01*
X199301190Y-57897619D01*
X199205952Y-57945238D01*
X199158333Y-57992857D01*
X199110714Y-58088095D01*
X199110714Y-58278571D01*
X199158333Y-58373809D01*
X199777380Y-58850000D02*
X199110714Y-58850000D01*
X198777380Y-58850000D02*
X198825000Y-58802380D01*
X198872619Y-58850000D01*
X198825000Y-58897619D01*
X198777380Y-58850000D01*
X198872619Y-58850000D01*
X199729761Y-59278571D02*
X199777380Y-59373809D01*
X199777380Y-59564285D01*
X199729761Y-59659523D01*
X199634523Y-59707142D01*
X199586904Y-59707142D01*
X199491666Y-59659523D01*
X199444047Y-59564285D01*
X199444047Y-59421428D01*
X199396428Y-59326190D01*
X199301190Y-59278571D01*
X199253571Y-59278571D01*
X199158333Y-59326190D01*
X199110714Y-59421428D01*
X199110714Y-59564285D01*
X199158333Y-59659523D01*
X199110714Y-59992857D02*
X199110714Y-60373809D01*
X198777380Y-60135714D02*
X199634523Y-60135714D01*
X199729761Y-60183333D01*
X199777380Y-60278571D01*
X199777380Y-60373809D01*
X199777380Y-61135714D02*
X199253571Y-61135714D01*
X199158333Y-61088095D01*
X199110714Y-60992857D01*
X199110714Y-60802380D01*
X199158333Y-60707142D01*
X199729761Y-61135714D02*
X199777380Y-61040476D01*
X199777380Y-60802380D01*
X199729761Y-60707142D01*
X199634523Y-60659523D01*
X199539285Y-60659523D01*
X199444047Y-60707142D01*
X199396428Y-60802380D01*
X199396428Y-61040476D01*
X199348809Y-61135714D01*
X199110714Y-61611904D02*
X199777380Y-61611904D01*
X199205952Y-61611904D02*
X199158333Y-61659523D01*
X199110714Y-61754761D01*
X199110714Y-61897619D01*
X199158333Y-61992857D01*
X199253571Y-62040476D01*
X199777380Y-62040476D01*
X199729761Y-62945238D02*
X199777380Y-62850000D01*
X199777380Y-62659523D01*
X199729761Y-62564285D01*
X199682142Y-62516666D01*
X199586904Y-62469047D01*
X199301190Y-62469047D01*
X199205952Y-62516666D01*
X199158333Y-62564285D01*
X199110714Y-62659523D01*
X199110714Y-62850000D01*
X199158333Y-62945238D01*
X199729761Y-63754761D02*
X199777380Y-63659523D01*
X199777380Y-63469047D01*
X199729761Y-63373809D01*
X199634523Y-63326190D01*
X199253571Y-63326190D01*
X199158333Y-63373809D01*
X199110714Y-63469047D01*
X199110714Y-63659523D01*
X199158333Y-63754761D01*
X199253571Y-63802380D01*
X199348809Y-63802380D01*
X199444047Y-63326190D01*
X201379761Y-56088095D02*
X201427380Y-56183333D01*
X201427380Y-56373809D01*
X201379761Y-56469047D01*
X201284523Y-56516666D01*
X201236904Y-56516666D01*
X201141666Y-56469047D01*
X201094047Y-56373809D01*
X201094047Y-56230952D01*
X201046428Y-56135714D01*
X200951190Y-56088095D01*
X200903571Y-56088095D01*
X200808333Y-56135714D01*
X200760714Y-56230952D01*
X200760714Y-56373809D01*
X200808333Y-56469047D01*
X201379761Y-57326190D02*
X201427380Y-57230952D01*
X201427380Y-57040476D01*
X201379761Y-56945238D01*
X201284523Y-56897619D01*
X200903571Y-56897619D01*
X200808333Y-56945238D01*
X200760714Y-57040476D01*
X200760714Y-57230952D01*
X200808333Y-57326190D01*
X200903571Y-57373809D01*
X200998809Y-57373809D01*
X201094047Y-56897619D01*
X200760714Y-57802380D02*
X201427380Y-57802380D01*
X200855952Y-57802380D02*
X200808333Y-57850000D01*
X200760714Y-57945238D01*
X200760714Y-58088095D01*
X200808333Y-58183333D01*
X200903571Y-58230952D01*
X201427380Y-58230952D01*
X201379761Y-58659523D02*
X201427380Y-58754761D01*
X201427380Y-58945238D01*
X201379761Y-59040476D01*
X201284523Y-59088095D01*
X201236904Y-59088095D01*
X201141666Y-59040476D01*
X201094047Y-58945238D01*
X201094047Y-58802380D01*
X201046428Y-58707142D01*
X200951190Y-58659523D01*
X200903571Y-58659523D01*
X200808333Y-58707142D01*
X200760714Y-58802380D01*
X200760714Y-58945238D01*
X200808333Y-59040476D01*
X201427380Y-59659523D02*
X201379761Y-59564285D01*
X201332142Y-59516666D01*
X201236904Y-59469047D01*
X200951190Y-59469047D01*
X200855952Y-59516666D01*
X200808333Y-59564285D01*
X200760714Y-59659523D01*
X200760714Y-59802380D01*
X200808333Y-59897619D01*
X200855952Y-59945238D01*
X200951190Y-59992857D01*
X201236904Y-59992857D01*
X201332142Y-59945238D01*
X201379761Y-59897619D01*
X201427380Y-59802380D01*
X201427380Y-59659523D01*
X201427380Y-60421428D02*
X200760714Y-60421428D01*
X200951190Y-60421428D02*
X200855952Y-60469047D01*
X200808333Y-60516666D01*
X200760714Y-60611904D01*
X200760714Y-60707142D01*
X201427380Y-61802380D02*
X200427380Y-61802380D01*
X200808333Y-61802380D02*
X200760714Y-61897619D01*
X200760714Y-62088095D01*
X200808333Y-62183333D01*
X200855952Y-62230952D01*
X200951190Y-62278571D01*
X201236904Y-62278571D01*
X201332142Y-62230952D01*
X201379761Y-62183333D01*
X201427380Y-62088095D01*
X201427380Y-61897619D01*
X201379761Y-61802380D01*
X201427380Y-62850000D02*
X201379761Y-62754761D01*
X201332142Y-62707142D01*
X201236904Y-62659523D01*
X200951190Y-62659523D01*
X200855952Y-62707142D01*
X200808333Y-62754761D01*
X200760714Y-62850000D01*
X200760714Y-62992857D01*
X200808333Y-63088095D01*
X200855952Y-63135714D01*
X200951190Y-63183333D01*
X201236904Y-63183333D01*
X201332142Y-63135714D01*
X201379761Y-63088095D01*
X201427380Y-62992857D01*
X201427380Y-62850000D01*
X201427380Y-64040476D02*
X200903571Y-64040476D01*
X200808333Y-63992857D01*
X200760714Y-63897619D01*
X200760714Y-63707142D01*
X200808333Y-63611904D01*
X201379761Y-64040476D02*
X201427380Y-63945238D01*
X201427380Y-63707142D01*
X201379761Y-63611904D01*
X201284523Y-63564285D01*
X201189285Y-63564285D01*
X201094047Y-63611904D01*
X201046428Y-63707142D01*
X201046428Y-63945238D01*
X200998809Y-64040476D01*
X201427380Y-64516666D02*
X200760714Y-64516666D01*
X200951190Y-64516666D02*
X200855952Y-64564285D01*
X200808333Y-64611904D01*
X200760714Y-64707142D01*
X200760714Y-64802380D01*
X201427380Y-65564285D02*
X200427380Y-65564285D01*
X201379761Y-65564285D02*
X201427380Y-65469047D01*
X201427380Y-65278571D01*
X201379761Y-65183333D01*
X201332142Y-65135714D01*
X201236904Y-65088095D01*
X200951190Y-65088095D01*
X200855952Y-65135714D01*
X200808333Y-65183333D01*
X200760714Y-65278571D01*
X200760714Y-65469047D01*
X200808333Y-65564285D01*
X193314285Y-57504761D02*
X193171428Y-57552380D01*
X192933333Y-57552380D01*
X192838095Y-57504761D01*
X192790476Y-57457142D01*
X192742857Y-57361904D01*
X192742857Y-57266666D01*
X192790476Y-57171428D01*
X192838095Y-57123809D01*
X192933333Y-57076190D01*
X193123809Y-57028571D01*
X193219047Y-56980952D01*
X193266666Y-56933333D01*
X193314285Y-56838095D01*
X193314285Y-56742857D01*
X193266666Y-56647619D01*
X193219047Y-56600000D01*
X193123809Y-56552380D01*
X192885714Y-56552380D01*
X192742857Y-56600000D01*
X192314285Y-57552380D02*
X192314285Y-56552380D01*
X192076190Y-56552380D01*
X191933333Y-56600000D01*
X191838095Y-56695238D01*
X191790476Y-56790476D01*
X191742857Y-56980952D01*
X191742857Y-57123809D01*
X191790476Y-57314285D01*
X191838095Y-57409523D01*
X191933333Y-57504761D01*
X192076190Y-57552380D01*
X192314285Y-57552380D01*
X191361904Y-57266666D02*
X190885714Y-57266666D01*
X191457142Y-57552380D02*
X191123809Y-56552380D01*
X190790476Y-57552380D01*
X193090476Y-60104761D02*
X192947619Y-60152380D01*
X192709523Y-60152380D01*
X192614285Y-60104761D01*
X192566666Y-60057142D01*
X192519047Y-59961904D01*
X192519047Y-59866666D01*
X192566666Y-59771428D01*
X192614285Y-59723809D01*
X192709523Y-59676190D01*
X192900000Y-59628571D01*
X192995238Y-59580952D01*
X193042857Y-59533333D01*
X193090476Y-59438095D01*
X193090476Y-59342857D01*
X193042857Y-59247619D01*
X192995238Y-59200000D01*
X192900000Y-59152380D01*
X192661904Y-59152380D01*
X192519047Y-59200000D01*
X191519047Y-60057142D02*
X191566666Y-60104761D01*
X191709523Y-60152380D01*
X191804761Y-60152380D01*
X191947619Y-60104761D01*
X192042857Y-60009523D01*
X192090476Y-59914285D01*
X192138095Y-59723809D01*
X192138095Y-59580952D01*
X192090476Y-59390476D01*
X192042857Y-59295238D01*
X191947619Y-59200000D01*
X191804761Y-59152380D01*
X191709523Y-59152380D01*
X191566666Y-59200000D01*
X191519047Y-59247619D01*
X190614285Y-60152380D02*
X191090476Y-60152380D01*
X191090476Y-59152380D01*
X192761904Y-61800000D02*
X192857142Y-61752380D01*
X193000000Y-61752380D01*
X193142857Y-61800000D01*
X193238095Y-61895238D01*
X193285714Y-61990476D01*
X193333333Y-62180952D01*
X193333333Y-62323809D01*
X193285714Y-62514285D01*
X193238095Y-62609523D01*
X193142857Y-62704761D01*
X193000000Y-62752380D01*
X192904761Y-62752380D01*
X192761904Y-62704761D01*
X192714285Y-62657142D01*
X192714285Y-62323809D01*
X192904761Y-62323809D01*
X192285714Y-62752380D02*
X192285714Y-61752380D01*
X191714285Y-62752380D01*
X191714285Y-61752380D01*
X191238095Y-62752380D02*
X191238095Y-61752380D01*
X191000000Y-61752380D01*
X190857142Y-61800000D01*
X190761904Y-61895238D01*
X190714285Y-61990476D01*
X190666666Y-62180952D01*
X190666666Y-62323809D01*
X190714285Y-62514285D01*
X190761904Y-62609523D01*
X190857142Y-62704761D01*
X191000000Y-62752380D01*
X191238095Y-62752380D01*
X192895238Y-64352380D02*
X192561904Y-65352380D01*
X192228571Y-64352380D01*
X191895238Y-65352380D02*
X191895238Y-64352380D01*
X191419047Y-65352380D02*
X191419047Y-64352380D01*
X190847619Y-65352380D01*
X190847619Y-64352380D01*
D11*
X217100000Y-67100000D02*
X216000000Y-66000000D01*
X218100000Y-66100000D02*
X217100000Y-67100000D01*
X216800000Y-64900000D02*
X218100000Y-66100000D01*
X186800000Y-54900000D02*
X186800000Y-66900000D01*
X202800000Y-54900000D02*
X186800000Y-54900000D01*
X202800000Y-66900000D02*
X202800000Y-54900000D01*
X186800000Y-66900000D02*
X202800000Y-66900000D01*
X217920797Y-61400000D02*
G75*
G03*
X217920797Y-61400000I-6020797J0D01*
G01*
D12*
X213000000Y-68250000D02*
X211250000Y-68250000D01*
X205250000Y-62000000D02*
X205250000Y-60750000D01*
X212750000Y-54750000D02*
X211500000Y-54750000D01*
X218750000Y-62250000D02*
X218750000Y-60750000D01*
D11*
X187570000Y-63530000D02*
X190230000Y-63530000D01*
X187570000Y-63530000D02*
X187570000Y-55850000D01*
X187570000Y-55850000D02*
X190230000Y-55850000D01*
X190230000Y-63530000D02*
X190230000Y-55850000D01*
X190230000Y-66130000D02*
X190230000Y-64800000D01*
X188900000Y-66130000D02*
X190230000Y-66130000D01*
X205450000Y-95800000D02*
X200650000Y-88950000D01*
X200650000Y-88950000D02*
X200650000Y-81050000D01*
X200650000Y-81050000D02*
X205450000Y-74250000D01*
X221000000Y-95550000D02*
X221000000Y-88850000D01*
X221000000Y-74450000D02*
X221000000Y-81150000D01*
X214250000Y-95750000D02*
X214250000Y-100550000D01*
X214250000Y-100550000D02*
X208750000Y-100550000D01*
X208750000Y-100550000D02*
X208750000Y-95750000D01*
X208750000Y-74250000D02*
X208750000Y-69450000D01*
X208750000Y-69450000D02*
X214250000Y-69450000D01*
X214250000Y-69450000D02*
X214250000Y-74250000D01*
X221001464Y-88846385D02*
G75*
G03*
X221000000Y-81150000I-9501464J3846385D01*
G01*
D10*
X220202380Y-60738095D02*
X221011904Y-60738095D01*
X221107142Y-60785714D01*
X221154761Y-60833333D01*
X221202380Y-60928571D01*
X221202380Y-61119047D01*
X221154761Y-61214285D01*
X221107142Y-61261904D01*
X221011904Y-61309523D01*
X220202380Y-61309523D01*
X220297619Y-61738095D02*
X220250000Y-61785714D01*
X220202380Y-61880952D01*
X220202380Y-62119047D01*
X220250000Y-62214285D01*
X220297619Y-62261904D01*
X220392857Y-62309523D01*
X220488095Y-62309523D01*
X220630952Y-62261904D01*
X221202380Y-61690476D01*
X221202380Y-62309523D01*
X189233333Y-67022380D02*
X189233333Y-67736666D01*
X189280952Y-67879523D01*
X189376190Y-67974761D01*
X189519047Y-68022380D01*
X189614285Y-68022380D01*
X188804761Y-67117619D02*
X188757142Y-67070000D01*
X188661904Y-67022380D01*
X188423809Y-67022380D01*
X188328571Y-67070000D01*
X188280952Y-67117619D01*
X188233333Y-67212857D01*
X188233333Y-67308095D01*
X188280952Y-67450952D01*
X188852380Y-68022380D01*
X188233333Y-68022380D01*
X201728571Y-93364285D02*
X201776190Y-93507142D01*
X201823809Y-93554761D01*
X201919047Y-93602380D01*
X202061904Y-93602380D01*
X202157142Y-93554761D01*
X202204761Y-93507142D01*
X202252380Y-93411904D01*
X202252380Y-93030952D01*
X201252380Y-93030952D01*
X201252380Y-93364285D01*
X201300000Y-93459523D01*
X201347619Y-93507142D01*
X201442857Y-93554761D01*
X201538095Y-93554761D01*
X201633333Y-93507142D01*
X201680952Y-93459523D01*
X201728571Y-93364285D01*
X201728571Y-93030952D01*
X201252380Y-93888095D02*
X201252380Y-94459523D01*
X202252380Y-94173809D02*
X201252380Y-94173809D01*
X202252380Y-95316666D02*
X202252380Y-94745238D01*
X202252380Y-95030952D02*
X201252380Y-95030952D01*
X201395238Y-94935714D01*
X201490476Y-94840476D01*
X201538095Y-94745238D01*
M02*
