G04 #@! TF.GenerationSoftware,KiCad,Pcbnew,(5.1.9)-1*
G04 #@! TF.CreationDate,2024-02-11T16:08:01+01:00*
G04 #@! TF.ProjectId,tiny_dt_0,74696e79-5f64-4745-9f30-2e6b69636164,rev?*
G04 #@! TF.SameCoordinates,Original*
G04 #@! TF.FileFunction,Copper,L2,Bot*
G04 #@! TF.FilePolarity,Positive*
%FSLAX46Y46*%
G04 Gerber Fmt 4.6, Leading zero omitted, Abs format (unit mm)*
G04 Created by KiCad (PCBNEW (5.1.9)-1) date 2024-02-11 16:08:01*
%MOMM*%
%LPD*%
G01*
G04 APERTURE LIST*
G04 #@! TA.AperFunction,ComponentPad*
%ADD10C,2.000000*%
G04 #@! TD*
G04 #@! TA.AperFunction,ComponentPad*
%ADD11C,1.600000*%
G04 #@! TD*
G04 #@! TA.AperFunction,ComponentPad*
%ADD12R,1.600000X1.600000*%
G04 #@! TD*
G04 #@! TA.AperFunction,ComponentPad*
%ADD13O,1.600000X1.600000*%
G04 #@! TD*
G04 #@! TA.AperFunction,ComponentPad*
%ADD14O,1.700000X1.700000*%
G04 #@! TD*
G04 #@! TA.AperFunction,ComponentPad*
%ADD15R,1.700000X1.700000*%
G04 #@! TD*
G04 #@! TA.AperFunction,SMDPad,CuDef*
%ADD16R,5.100000X5.100000*%
G04 #@! TD*
G04 #@! TA.AperFunction,SMDPad,CuDef*
%ADD17C,17.800000*%
G04 #@! TD*
G04 #@! TA.AperFunction,Conductor*
%ADD18C,0.406400*%
G04 #@! TD*
G04 #@! TA.AperFunction,Conductor*
%ADD19C,0.254000*%
G04 #@! TD*
G04 #@! TA.AperFunction,Conductor*
%ADD20C,0.100000*%
G04 #@! TD*
G04 APERTURE END LIST*
D10*
X200250000Y-99500000D03*
X204750000Y-99500000D03*
X200250000Y-106000000D03*
X204750000Y-106000000D03*
D11*
X214500000Y-61500000D03*
X212000000Y-59000000D03*
X209500000Y-61500000D03*
D12*
X212000000Y-64000000D03*
D11*
X186500000Y-98880000D03*
X189040000Y-98880000D03*
X191580000Y-98880000D03*
X194120000Y-98880000D03*
X194120000Y-106500000D03*
X191580000Y-106500000D03*
X189040000Y-106500000D03*
D12*
X186500000Y-106500000D03*
D13*
X217420000Y-102900000D03*
D11*
X209800000Y-102900000D03*
D13*
X217420000Y-106400000D03*
D11*
X209800000Y-106400000D03*
D14*
X188900000Y-57180000D03*
X188900000Y-59720000D03*
X188900000Y-62260000D03*
D15*
X188900000Y-64800000D03*
D14*
X206320000Y-70400000D03*
X203780000Y-70400000D03*
X201240000Y-70400000D03*
D15*
X198700000Y-70400000D03*
D16*
X211500000Y-72200000D03*
X211500000Y-97800000D03*
D17*
X211500000Y-85000000D03*
D18*
X211500000Y-85000000D02*
X201000000Y-95500000D01*
X201000000Y-95500000D02*
X197800000Y-95500000D01*
X197800000Y-95500000D02*
X197000000Y-96300000D01*
X197000000Y-96300000D02*
X197000000Y-105100000D01*
X195600000Y-106500000D02*
X194120000Y-106500000D01*
X197000000Y-105100000D02*
X195600000Y-106500000D01*
X211500000Y-85000000D02*
X211500000Y-83700000D01*
X211500000Y-83700000D02*
X218800000Y-76400000D01*
X218800000Y-76400000D02*
X218800000Y-64400000D01*
X215900000Y-61500000D02*
X214500000Y-61500000D01*
X218800000Y-64400000D02*
X215900000Y-61500000D01*
X214500000Y-61500000D02*
X214500000Y-57100000D01*
X214500000Y-57100000D02*
X213400000Y-56000000D01*
X213400000Y-56000000D02*
X199600000Y-56000000D01*
X199600000Y-56000000D02*
X193340000Y-62260000D01*
X198700000Y-70400000D02*
X196900000Y-70400000D01*
X193160000Y-66660000D02*
X193160000Y-62260000D01*
X196900000Y-70400000D02*
X193160000Y-66660000D01*
X193160000Y-62260000D02*
X188900000Y-62260000D01*
X193340000Y-62260000D02*
X193160000Y-62260000D01*
X204750000Y-99500000D02*
X204750000Y-106000000D01*
X209400000Y-106000000D02*
X209800000Y-106400000D01*
X204750000Y-106000000D02*
X209400000Y-106000000D01*
X209800000Y-102900000D02*
X209800000Y-106400000D01*
X201240000Y-70400000D02*
X201240000Y-61560000D01*
X201240000Y-61560000D02*
X204500000Y-58300000D01*
X211300000Y-58300000D02*
X212000000Y-59000000D01*
X204500000Y-58300000D02*
X211300000Y-58300000D01*
X209500000Y-61500000D02*
X208000000Y-61500000D01*
X206320000Y-63180000D02*
X206320000Y-70400000D01*
X208000000Y-61500000D02*
X206320000Y-63180000D01*
X200250000Y-106000000D02*
X200250000Y-99500000D01*
X200250000Y-99500000D02*
X202600000Y-97150000D01*
X210850000Y-97150000D02*
X211500000Y-97800000D01*
X202600000Y-97150000D02*
X210850000Y-97150000D01*
X211500000Y-72200000D02*
X210300000Y-72200000D01*
X211500000Y-72200000D02*
X209600000Y-72200000D01*
X209600000Y-72200000D02*
X207300000Y-74500000D01*
X207300000Y-74500000D02*
X196800000Y-74500000D01*
X196800000Y-74500000D02*
X183900000Y-87400000D01*
X183900000Y-87400000D02*
X183900000Y-107400000D01*
X183900000Y-107400000D02*
X184600000Y-108100000D01*
X198150000Y-108100000D02*
X200250000Y-106000000D01*
X184600000Y-108100000D02*
X198150000Y-108100000D01*
D19*
X221340001Y-108340000D02*
X199095393Y-108340000D01*
X199848271Y-107587123D01*
X200088967Y-107635000D01*
X200411033Y-107635000D01*
X200726912Y-107572168D01*
X201024463Y-107448918D01*
X201292252Y-107269987D01*
X201519987Y-107042252D01*
X201698918Y-106774463D01*
X201822168Y-106476912D01*
X201885000Y-106161033D01*
X201885000Y-105838967D01*
X201822168Y-105523088D01*
X201698918Y-105225537D01*
X201519987Y-104957748D01*
X201292252Y-104730013D01*
X201088200Y-104593670D01*
X201088200Y-100906330D01*
X201292252Y-100769987D01*
X201519987Y-100542252D01*
X201698918Y-100274463D01*
X201822168Y-99976912D01*
X201885000Y-99661033D01*
X201885000Y-99338967D01*
X201837123Y-99098271D01*
X202947194Y-97988200D01*
X204127347Y-97988200D01*
X203975537Y-98051082D01*
X203707748Y-98230013D01*
X203480013Y-98457748D01*
X203301082Y-98725537D01*
X203177832Y-99023088D01*
X203115000Y-99338967D01*
X203115000Y-99661033D01*
X203177832Y-99976912D01*
X203301082Y-100274463D01*
X203480013Y-100542252D01*
X203707748Y-100769987D01*
X203911800Y-100906330D01*
X203911801Y-104593669D01*
X203707748Y-104730013D01*
X203480013Y-104957748D01*
X203301082Y-105225537D01*
X203177832Y-105523088D01*
X203115000Y-105838967D01*
X203115000Y-106161033D01*
X203177832Y-106476912D01*
X203301082Y-106774463D01*
X203480013Y-107042252D01*
X203707748Y-107269987D01*
X203975537Y-107448918D01*
X204273088Y-107572168D01*
X204588967Y-107635000D01*
X204911033Y-107635000D01*
X205226912Y-107572168D01*
X205524463Y-107448918D01*
X205792252Y-107269987D01*
X206019987Y-107042252D01*
X206156330Y-106838200D01*
X208428276Y-106838200D01*
X208528320Y-107079727D01*
X208685363Y-107314759D01*
X208885241Y-107514637D01*
X209120273Y-107671680D01*
X209381426Y-107779853D01*
X209658665Y-107835000D01*
X209941335Y-107835000D01*
X210218574Y-107779853D01*
X210479727Y-107671680D01*
X210714759Y-107514637D01*
X210914637Y-107314759D01*
X211071680Y-107079727D01*
X211179853Y-106818574D01*
X211235000Y-106541335D01*
X211235000Y-106258665D01*
X215985000Y-106258665D01*
X215985000Y-106541335D01*
X216040147Y-106818574D01*
X216148320Y-107079727D01*
X216305363Y-107314759D01*
X216505241Y-107514637D01*
X216740273Y-107671680D01*
X217001426Y-107779853D01*
X217278665Y-107835000D01*
X217561335Y-107835000D01*
X217838574Y-107779853D01*
X218099727Y-107671680D01*
X218334759Y-107514637D01*
X218534637Y-107314759D01*
X218691680Y-107079727D01*
X218799853Y-106818574D01*
X218855000Y-106541335D01*
X218855000Y-106258665D01*
X218799853Y-105981426D01*
X218691680Y-105720273D01*
X218534637Y-105485241D01*
X218334759Y-105285363D01*
X218099727Y-105128320D01*
X217838574Y-105020147D01*
X217561335Y-104965000D01*
X217278665Y-104965000D01*
X217001426Y-105020147D01*
X216740273Y-105128320D01*
X216505241Y-105285363D01*
X216305363Y-105485241D01*
X216148320Y-105720273D01*
X216040147Y-105981426D01*
X215985000Y-106258665D01*
X211235000Y-106258665D01*
X211179853Y-105981426D01*
X211071680Y-105720273D01*
X210914637Y-105485241D01*
X210714759Y-105285363D01*
X210638200Y-105234208D01*
X210638200Y-104065792D01*
X210714759Y-104014637D01*
X210914637Y-103814759D01*
X211071680Y-103579727D01*
X211179853Y-103318574D01*
X211235000Y-103041335D01*
X211235000Y-102758665D01*
X215985000Y-102758665D01*
X215985000Y-103041335D01*
X216040147Y-103318574D01*
X216148320Y-103579727D01*
X216305363Y-103814759D01*
X216505241Y-104014637D01*
X216740273Y-104171680D01*
X217001426Y-104279853D01*
X217278665Y-104335000D01*
X217561335Y-104335000D01*
X217838574Y-104279853D01*
X218099727Y-104171680D01*
X218334759Y-104014637D01*
X218534637Y-103814759D01*
X218691680Y-103579727D01*
X218799853Y-103318574D01*
X218855000Y-103041335D01*
X218855000Y-102758665D01*
X218799853Y-102481426D01*
X218691680Y-102220273D01*
X218534637Y-101985241D01*
X218334759Y-101785363D01*
X218099727Y-101628320D01*
X217838574Y-101520147D01*
X217561335Y-101465000D01*
X217278665Y-101465000D01*
X217001426Y-101520147D01*
X216740273Y-101628320D01*
X216505241Y-101785363D01*
X216305363Y-101985241D01*
X216148320Y-102220273D01*
X216040147Y-102481426D01*
X215985000Y-102758665D01*
X211235000Y-102758665D01*
X211179853Y-102481426D01*
X211071680Y-102220273D01*
X210914637Y-101985241D01*
X210714759Y-101785363D01*
X210479727Y-101628320D01*
X210218574Y-101520147D01*
X209941335Y-101465000D01*
X209658665Y-101465000D01*
X209381426Y-101520147D01*
X209120273Y-101628320D01*
X208885241Y-101785363D01*
X208685363Y-101985241D01*
X208528320Y-102220273D01*
X208420147Y-102481426D01*
X208365000Y-102758665D01*
X208365000Y-103041335D01*
X208420147Y-103318574D01*
X208528320Y-103579727D01*
X208685363Y-103814759D01*
X208885241Y-104014637D01*
X208961800Y-104065792D01*
X208961801Y-105161800D01*
X206156330Y-105161800D01*
X206019987Y-104957748D01*
X205792252Y-104730013D01*
X205588200Y-104593670D01*
X205588200Y-100906330D01*
X205792252Y-100769987D01*
X206019987Y-100542252D01*
X206198918Y-100274463D01*
X206322168Y-99976912D01*
X206385000Y-99661033D01*
X206385000Y-99338967D01*
X206322168Y-99023088D01*
X206198918Y-98725537D01*
X206019987Y-98457748D01*
X205792252Y-98230013D01*
X205524463Y-98051082D01*
X205372653Y-97988200D01*
X208311928Y-97988200D01*
X208311928Y-100350000D01*
X208324188Y-100474482D01*
X208360498Y-100594180D01*
X208419463Y-100704494D01*
X208498815Y-100801185D01*
X208595506Y-100880537D01*
X208705820Y-100939502D01*
X208825518Y-100975812D01*
X208950000Y-100988072D01*
X214050000Y-100988072D01*
X214174482Y-100975812D01*
X214294180Y-100939502D01*
X214404494Y-100880537D01*
X214501185Y-100801185D01*
X214580537Y-100704494D01*
X214639502Y-100594180D01*
X214675812Y-100474482D01*
X214688072Y-100350000D01*
X214688072Y-95250000D01*
X214675812Y-95125518D01*
X214639502Y-95005820D01*
X214580537Y-94895506D01*
X214501185Y-94798815D01*
X214404494Y-94719463D01*
X214294180Y-94660498D01*
X214174482Y-94624188D01*
X214050000Y-94611928D01*
X208950000Y-94611928D01*
X208825518Y-94624188D01*
X208705820Y-94660498D01*
X208595506Y-94719463D01*
X208498815Y-94798815D01*
X208419463Y-94895506D01*
X208360498Y-95005820D01*
X208324188Y-95125518D01*
X208311928Y-95250000D01*
X208311928Y-96311800D01*
X202641163Y-96311800D01*
X202600000Y-96307746D01*
X202558837Y-96311800D01*
X202558830Y-96311800D01*
X202435684Y-96323929D01*
X202277683Y-96371858D01*
X202132068Y-96449691D01*
X202004436Y-96554436D01*
X201978194Y-96586412D01*
X200651729Y-97912877D01*
X200411033Y-97865000D01*
X200088967Y-97865000D01*
X199773088Y-97927832D01*
X199475537Y-98051082D01*
X199207748Y-98230013D01*
X198980013Y-98457748D01*
X198801082Y-98725537D01*
X198677832Y-99023088D01*
X198615000Y-99338967D01*
X198615000Y-99661033D01*
X198677832Y-99976912D01*
X198801082Y-100274463D01*
X198980013Y-100542252D01*
X199207748Y-100769987D01*
X199411801Y-100906331D01*
X199411800Y-104593670D01*
X199207748Y-104730013D01*
X198980013Y-104957748D01*
X198801082Y-105225537D01*
X198677832Y-105523088D01*
X198615000Y-105838967D01*
X198615000Y-106161033D01*
X198662877Y-106401729D01*
X197802807Y-107261800D01*
X195287532Y-107261800D01*
X195356671Y-107241514D01*
X195477571Y-106986004D01*
X195546300Y-106711816D01*
X195560217Y-106429488D01*
X195518787Y-106149870D01*
X195423603Y-105883708D01*
X195356671Y-105758486D01*
X195112702Y-105686903D01*
X194299605Y-106500000D01*
X194313748Y-106514143D01*
X194134143Y-106693748D01*
X194120000Y-106679605D01*
X194105858Y-106693748D01*
X193926253Y-106514143D01*
X193940395Y-106500000D01*
X193127298Y-105686903D01*
X192883329Y-105758486D01*
X192852806Y-105822992D01*
X192851680Y-105820273D01*
X192694637Y-105585241D01*
X192616694Y-105507298D01*
X193306903Y-105507298D01*
X194120000Y-106320395D01*
X194933097Y-105507298D01*
X194861514Y-105263329D01*
X194606004Y-105142429D01*
X194331816Y-105073700D01*
X194049488Y-105059783D01*
X193769870Y-105101213D01*
X193503708Y-105196397D01*
X193378486Y-105263329D01*
X193306903Y-105507298D01*
X192616694Y-105507298D01*
X192494759Y-105385363D01*
X192259727Y-105228320D01*
X191998574Y-105120147D01*
X191721335Y-105065000D01*
X191438665Y-105065000D01*
X191161426Y-105120147D01*
X190900273Y-105228320D01*
X190665241Y-105385363D01*
X190465363Y-105585241D01*
X190310000Y-105817759D01*
X190154637Y-105585241D01*
X189954759Y-105385363D01*
X189719727Y-105228320D01*
X189458574Y-105120147D01*
X189181335Y-105065000D01*
X188898665Y-105065000D01*
X188621426Y-105120147D01*
X188360273Y-105228320D01*
X188125241Y-105385363D01*
X187926643Y-105583961D01*
X187925812Y-105575518D01*
X187889502Y-105455820D01*
X187830537Y-105345506D01*
X187751185Y-105248815D01*
X187654494Y-105169463D01*
X187544180Y-105110498D01*
X187424482Y-105074188D01*
X187300000Y-105061928D01*
X185700000Y-105061928D01*
X185575518Y-105074188D01*
X185455820Y-105110498D01*
X185345506Y-105169463D01*
X185248815Y-105248815D01*
X185169463Y-105345506D01*
X185110498Y-105455820D01*
X185074188Y-105575518D01*
X185061928Y-105700000D01*
X185061928Y-107261800D01*
X184947194Y-107261800D01*
X184738200Y-107052807D01*
X184738200Y-98738665D01*
X185065000Y-98738665D01*
X185065000Y-99021335D01*
X185120147Y-99298574D01*
X185228320Y-99559727D01*
X185385363Y-99794759D01*
X185585241Y-99994637D01*
X185820273Y-100151680D01*
X186081426Y-100259853D01*
X186358665Y-100315000D01*
X186641335Y-100315000D01*
X186918574Y-100259853D01*
X187179727Y-100151680D01*
X187414759Y-99994637D01*
X187614637Y-99794759D01*
X187770000Y-99562241D01*
X187925363Y-99794759D01*
X188125241Y-99994637D01*
X188360273Y-100151680D01*
X188621426Y-100259853D01*
X188898665Y-100315000D01*
X189181335Y-100315000D01*
X189458574Y-100259853D01*
X189719727Y-100151680D01*
X189954759Y-99994637D01*
X190154637Y-99794759D01*
X190310000Y-99562241D01*
X190465363Y-99794759D01*
X190665241Y-99994637D01*
X190900273Y-100151680D01*
X191161426Y-100259853D01*
X191438665Y-100315000D01*
X191721335Y-100315000D01*
X191998574Y-100259853D01*
X192259727Y-100151680D01*
X192494759Y-99994637D01*
X192694637Y-99794759D01*
X192850000Y-99562241D01*
X193005363Y-99794759D01*
X193205241Y-99994637D01*
X193440273Y-100151680D01*
X193701426Y-100259853D01*
X193978665Y-100315000D01*
X194261335Y-100315000D01*
X194538574Y-100259853D01*
X194799727Y-100151680D01*
X195034759Y-99994637D01*
X195234637Y-99794759D01*
X195391680Y-99559727D01*
X195499853Y-99298574D01*
X195555000Y-99021335D01*
X195555000Y-98738665D01*
X195499853Y-98461426D01*
X195391680Y-98200273D01*
X195234637Y-97965241D01*
X195034759Y-97765363D01*
X194799727Y-97608320D01*
X194538574Y-97500147D01*
X194261335Y-97445000D01*
X193978665Y-97445000D01*
X193701426Y-97500147D01*
X193440273Y-97608320D01*
X193205241Y-97765363D01*
X193005363Y-97965241D01*
X192850000Y-98197759D01*
X192694637Y-97965241D01*
X192494759Y-97765363D01*
X192259727Y-97608320D01*
X191998574Y-97500147D01*
X191721335Y-97445000D01*
X191438665Y-97445000D01*
X191161426Y-97500147D01*
X190900273Y-97608320D01*
X190665241Y-97765363D01*
X190465363Y-97965241D01*
X190310000Y-98197759D01*
X190154637Y-97965241D01*
X189954759Y-97765363D01*
X189719727Y-97608320D01*
X189458574Y-97500147D01*
X189181335Y-97445000D01*
X188898665Y-97445000D01*
X188621426Y-97500147D01*
X188360273Y-97608320D01*
X188125241Y-97765363D01*
X187925363Y-97965241D01*
X187770000Y-98197759D01*
X187614637Y-97965241D01*
X187414759Y-97765363D01*
X187179727Y-97608320D01*
X186918574Y-97500147D01*
X186641335Y-97445000D01*
X186358665Y-97445000D01*
X186081426Y-97500147D01*
X185820273Y-97608320D01*
X185585241Y-97765363D01*
X185385363Y-97965241D01*
X185228320Y-98200273D01*
X185120147Y-98461426D01*
X185065000Y-98738665D01*
X184738200Y-98738665D01*
X184738200Y-91751830D01*
X204927775Y-91751830D01*
X205971590Y-92825270D01*
X207604451Y-93753449D01*
X209387016Y-94345238D01*
X211250782Y-94577894D01*
X213124125Y-94442478D01*
X214935054Y-93944192D01*
X216613976Y-93102186D01*
X217028410Y-92825270D01*
X218072225Y-91751830D01*
X211500000Y-85179605D01*
X204927775Y-91751830D01*
X184738200Y-91751830D01*
X184738200Y-87747193D01*
X187734611Y-84750782D01*
X201922106Y-84750782D01*
X202057522Y-86624125D01*
X202555808Y-88435054D01*
X203397814Y-90113976D01*
X203674730Y-90528410D01*
X204748170Y-91572225D01*
X211320395Y-85000000D01*
X211679605Y-85000000D01*
X218251830Y-91572225D01*
X219325270Y-90528410D01*
X220253449Y-88895549D01*
X220845238Y-87112984D01*
X221077894Y-85249218D01*
X220942478Y-83375875D01*
X220444192Y-81564946D01*
X219602186Y-79886024D01*
X219325270Y-79471590D01*
X218251830Y-78427775D01*
X211679605Y-85000000D01*
X211320395Y-85000000D01*
X204748170Y-78427775D01*
X203674730Y-79471590D01*
X202746551Y-81104451D01*
X202154762Y-82887016D01*
X201922106Y-84750782D01*
X187734611Y-84750782D01*
X194237223Y-78248170D01*
X204927775Y-78248170D01*
X211500000Y-84820395D01*
X218072225Y-78248170D01*
X217028410Y-77174730D01*
X215395549Y-76246551D01*
X213612984Y-75654762D01*
X211749218Y-75422106D01*
X209875875Y-75557522D01*
X208064946Y-76055808D01*
X206386024Y-76897814D01*
X205971590Y-77174730D01*
X204927775Y-78248170D01*
X194237223Y-78248170D01*
X197147194Y-75338200D01*
X207258837Y-75338200D01*
X207300000Y-75342254D01*
X207341163Y-75338200D01*
X207341170Y-75338200D01*
X207464316Y-75326071D01*
X207622317Y-75278142D01*
X207767932Y-75200309D01*
X207895564Y-75095564D01*
X207921811Y-75063582D01*
X208311928Y-74673465D01*
X208311928Y-74750000D01*
X208324188Y-74874482D01*
X208360498Y-74994180D01*
X208419463Y-75104494D01*
X208498815Y-75201185D01*
X208595506Y-75280537D01*
X208705820Y-75339502D01*
X208825518Y-75375812D01*
X208950000Y-75388072D01*
X214050000Y-75388072D01*
X214174482Y-75375812D01*
X214294180Y-75339502D01*
X214404494Y-75280537D01*
X214501185Y-75201185D01*
X214580537Y-75104494D01*
X214639502Y-74994180D01*
X214675812Y-74874482D01*
X214688072Y-74750000D01*
X214688072Y-69650000D01*
X214675812Y-69525518D01*
X214639502Y-69405820D01*
X214580537Y-69295506D01*
X214501185Y-69198815D01*
X214404494Y-69119463D01*
X214294180Y-69060498D01*
X214174482Y-69024188D01*
X214050000Y-69011928D01*
X208950000Y-69011928D01*
X208825518Y-69024188D01*
X208705820Y-69060498D01*
X208595506Y-69119463D01*
X208498815Y-69198815D01*
X208419463Y-69295506D01*
X208360498Y-69405820D01*
X208324188Y-69525518D01*
X208311928Y-69650000D01*
X208311928Y-72302678D01*
X206952807Y-73661800D01*
X196841163Y-73661800D01*
X196800000Y-73657746D01*
X196758837Y-73661800D01*
X196758830Y-73661800D01*
X196635684Y-73673929D01*
X196477683Y-73721858D01*
X196332068Y-73799691D01*
X196204436Y-73904436D01*
X196178194Y-73936412D01*
X183660000Y-86454607D01*
X183660000Y-71250000D01*
X197211928Y-71250000D01*
X197224188Y-71374482D01*
X197260498Y-71494180D01*
X197319463Y-71604494D01*
X197398815Y-71701185D01*
X197495506Y-71780537D01*
X197605820Y-71839502D01*
X197725518Y-71875812D01*
X197850000Y-71888072D01*
X198414250Y-71885000D01*
X198573000Y-71726250D01*
X198573000Y-70527000D01*
X197373750Y-70527000D01*
X197215000Y-70685750D01*
X197211928Y-71250000D01*
X183660000Y-71250000D01*
X183660000Y-69550000D01*
X197211928Y-69550000D01*
X197215000Y-70114250D01*
X197373750Y-70273000D01*
X198573000Y-70273000D01*
X198573000Y-69073750D01*
X198827000Y-69073750D01*
X198827000Y-70273000D01*
X198847000Y-70273000D01*
X198847000Y-70527000D01*
X198827000Y-70527000D01*
X198827000Y-71726250D01*
X198985750Y-71885000D01*
X199550000Y-71888072D01*
X199674482Y-71875812D01*
X199794180Y-71839502D01*
X199904494Y-71780537D01*
X200001185Y-71701185D01*
X200080537Y-71604494D01*
X200139502Y-71494180D01*
X200161513Y-71421620D01*
X200293368Y-71553475D01*
X200536589Y-71715990D01*
X200806842Y-71827932D01*
X201093740Y-71885000D01*
X201386260Y-71885000D01*
X201673158Y-71827932D01*
X201943411Y-71715990D01*
X202186632Y-71553475D01*
X202393475Y-71346632D01*
X202510000Y-71172240D01*
X202626525Y-71346632D01*
X202833368Y-71553475D01*
X203076589Y-71715990D01*
X203346842Y-71827932D01*
X203633740Y-71885000D01*
X203926260Y-71885000D01*
X204213158Y-71827932D01*
X204483411Y-71715990D01*
X204726632Y-71553475D01*
X204933475Y-71346632D01*
X205050000Y-71172240D01*
X205166525Y-71346632D01*
X205373368Y-71553475D01*
X205616589Y-71715990D01*
X205886842Y-71827932D01*
X206173740Y-71885000D01*
X206466260Y-71885000D01*
X206753158Y-71827932D01*
X207023411Y-71715990D01*
X207266632Y-71553475D01*
X207473475Y-71346632D01*
X207635990Y-71103411D01*
X207747932Y-70833158D01*
X207805000Y-70546260D01*
X207805000Y-70253740D01*
X207747932Y-69966842D01*
X207635990Y-69696589D01*
X207473475Y-69453368D01*
X207266632Y-69246525D01*
X207158200Y-69174073D01*
X207158200Y-63527193D01*
X207485393Y-63200000D01*
X210561928Y-63200000D01*
X210561928Y-64800000D01*
X210574188Y-64924482D01*
X210610498Y-65044180D01*
X210669463Y-65154494D01*
X210748815Y-65251185D01*
X210845506Y-65330537D01*
X210955820Y-65389502D01*
X211075518Y-65425812D01*
X211200000Y-65438072D01*
X212800000Y-65438072D01*
X212924482Y-65425812D01*
X213044180Y-65389502D01*
X213154494Y-65330537D01*
X213251185Y-65251185D01*
X213330537Y-65154494D01*
X213389502Y-65044180D01*
X213425812Y-64924482D01*
X213438072Y-64800000D01*
X213438072Y-63200000D01*
X213425812Y-63075518D01*
X213389502Y-62955820D01*
X213330537Y-62845506D01*
X213251185Y-62748815D01*
X213154494Y-62669463D01*
X213044180Y-62610498D01*
X212924482Y-62574188D01*
X212800000Y-62561928D01*
X211200000Y-62561928D01*
X211075518Y-62574188D01*
X210955820Y-62610498D01*
X210845506Y-62669463D01*
X210748815Y-62748815D01*
X210669463Y-62845506D01*
X210610498Y-62955820D01*
X210574188Y-63075518D01*
X210561928Y-63200000D01*
X207485393Y-63200000D01*
X208339409Y-62345984D01*
X208385363Y-62414759D01*
X208585241Y-62614637D01*
X208820273Y-62771680D01*
X209081426Y-62879853D01*
X209358665Y-62935000D01*
X209641335Y-62935000D01*
X209918574Y-62879853D01*
X210179727Y-62771680D01*
X210414759Y-62614637D01*
X210536694Y-62492702D01*
X213686903Y-62492702D01*
X213758486Y-62736671D01*
X214013996Y-62857571D01*
X214288184Y-62926300D01*
X214570512Y-62940217D01*
X214850130Y-62898787D01*
X215116292Y-62803603D01*
X215241514Y-62736671D01*
X215313097Y-62492702D01*
X214500000Y-61679605D01*
X213686903Y-62492702D01*
X210536694Y-62492702D01*
X210614637Y-62414759D01*
X210771680Y-62179727D01*
X210879853Y-61918574D01*
X210935000Y-61641335D01*
X210935000Y-61570512D01*
X213059783Y-61570512D01*
X213101213Y-61850130D01*
X213196397Y-62116292D01*
X213263329Y-62241514D01*
X213507298Y-62313097D01*
X214320395Y-61500000D01*
X214679605Y-61500000D01*
X215492702Y-62313097D01*
X215736671Y-62241514D01*
X215857571Y-61986004D01*
X215926300Y-61711816D01*
X215940217Y-61429488D01*
X215898787Y-61149870D01*
X215803603Y-60883708D01*
X215736671Y-60758486D01*
X215492702Y-60686903D01*
X214679605Y-61500000D01*
X214320395Y-61500000D01*
X213507298Y-60686903D01*
X213263329Y-60758486D01*
X213142429Y-61013996D01*
X213073700Y-61288184D01*
X213059783Y-61570512D01*
X210935000Y-61570512D01*
X210935000Y-61358665D01*
X210879853Y-61081426D01*
X210771680Y-60820273D01*
X210614637Y-60585241D01*
X210536694Y-60507298D01*
X213686903Y-60507298D01*
X214500000Y-61320395D01*
X215313097Y-60507298D01*
X215241514Y-60263329D01*
X214986004Y-60142429D01*
X214711816Y-60073700D01*
X214429488Y-60059783D01*
X214149870Y-60101213D01*
X213883708Y-60196397D01*
X213758486Y-60263329D01*
X213686903Y-60507298D01*
X210536694Y-60507298D01*
X210414759Y-60385363D01*
X210179727Y-60228320D01*
X209918574Y-60120147D01*
X209641335Y-60065000D01*
X209358665Y-60065000D01*
X209081426Y-60120147D01*
X208820273Y-60228320D01*
X208585241Y-60385363D01*
X208385363Y-60585241D01*
X208334208Y-60661800D01*
X208041163Y-60661800D01*
X208000000Y-60657746D01*
X207958837Y-60661800D01*
X207958830Y-60661800D01*
X207835684Y-60673929D01*
X207677683Y-60721858D01*
X207532068Y-60799691D01*
X207404436Y-60904436D01*
X207378194Y-60936413D01*
X205756418Y-62558189D01*
X205724436Y-62584436D01*
X205619691Y-62712069D01*
X205541858Y-62857684D01*
X205493929Y-63015685D01*
X205481800Y-63138831D01*
X205481800Y-63138837D01*
X205477746Y-63180000D01*
X205481800Y-63221163D01*
X205481801Y-69174073D01*
X205373368Y-69246525D01*
X205166525Y-69453368D01*
X205050000Y-69627760D01*
X204933475Y-69453368D01*
X204726632Y-69246525D01*
X204483411Y-69084010D01*
X204213158Y-68972068D01*
X203926260Y-68915000D01*
X203633740Y-68915000D01*
X203346842Y-68972068D01*
X203076589Y-69084010D01*
X202833368Y-69246525D01*
X202626525Y-69453368D01*
X202510000Y-69627760D01*
X202393475Y-69453368D01*
X202186632Y-69246525D01*
X202078200Y-69174073D01*
X202078200Y-61907193D01*
X204847194Y-59138200D01*
X210565000Y-59138200D01*
X210565000Y-59141335D01*
X210620147Y-59418574D01*
X210728320Y-59679727D01*
X210885363Y-59914759D01*
X211085241Y-60114637D01*
X211320273Y-60271680D01*
X211581426Y-60379853D01*
X211858665Y-60435000D01*
X212141335Y-60435000D01*
X212418574Y-60379853D01*
X212679727Y-60271680D01*
X212914759Y-60114637D01*
X213114637Y-59914759D01*
X213271680Y-59679727D01*
X213379853Y-59418574D01*
X213435000Y-59141335D01*
X213435000Y-58858665D01*
X213379853Y-58581426D01*
X213271680Y-58320273D01*
X213114637Y-58085241D01*
X212914759Y-57885363D01*
X212679727Y-57728320D01*
X212418574Y-57620147D01*
X212141335Y-57565000D01*
X211858665Y-57565000D01*
X211745240Y-57587562D01*
X211622317Y-57521858D01*
X211464316Y-57473929D01*
X211341170Y-57461800D01*
X211341163Y-57461800D01*
X211300000Y-57457746D01*
X211258837Y-57461800D01*
X204541159Y-57461800D01*
X204499999Y-57457746D01*
X204458839Y-57461800D01*
X204458830Y-57461800D01*
X204335684Y-57473929D01*
X204177683Y-57521858D01*
X204032068Y-57599691D01*
X203904436Y-57704436D01*
X203878194Y-57736412D01*
X200676413Y-60938194D01*
X200644437Y-60964436D01*
X200618195Y-60996412D01*
X200618192Y-60996415D01*
X200539691Y-61092069D01*
X200461858Y-61237684D01*
X200413929Y-61395685D01*
X200397746Y-61560000D01*
X200401801Y-61601173D01*
X200401800Y-69174073D01*
X200293368Y-69246525D01*
X200161513Y-69378380D01*
X200139502Y-69305820D01*
X200080537Y-69195506D01*
X200001185Y-69098815D01*
X199904494Y-69019463D01*
X199794180Y-68960498D01*
X199674482Y-68924188D01*
X199550000Y-68911928D01*
X198985750Y-68915000D01*
X198827000Y-69073750D01*
X198573000Y-69073750D01*
X198414250Y-68915000D01*
X197850000Y-68911928D01*
X197725518Y-68924188D01*
X197605820Y-68960498D01*
X197495506Y-69019463D01*
X197398815Y-69098815D01*
X197319463Y-69195506D01*
X197260498Y-69305820D01*
X197224188Y-69425518D01*
X197211928Y-69550000D01*
X183660000Y-69550000D01*
X183660000Y-63950000D01*
X187411928Y-63950000D01*
X187411928Y-65650000D01*
X187424188Y-65774482D01*
X187460498Y-65894180D01*
X187519463Y-66004494D01*
X187598815Y-66101185D01*
X187695506Y-66180537D01*
X187805820Y-66239502D01*
X187925518Y-66275812D01*
X188050000Y-66288072D01*
X189750000Y-66288072D01*
X189874482Y-66275812D01*
X189994180Y-66239502D01*
X190104494Y-66180537D01*
X190201185Y-66101185D01*
X190280537Y-66004494D01*
X190339502Y-65894180D01*
X190375812Y-65774482D01*
X190388072Y-65650000D01*
X190388072Y-63950000D01*
X190375812Y-63825518D01*
X190339502Y-63705820D01*
X190280537Y-63595506D01*
X190201185Y-63498815D01*
X190104494Y-63419463D01*
X189994180Y-63360498D01*
X189913534Y-63336034D01*
X189997588Y-63260269D01*
X190171641Y-63026920D01*
X190296825Y-62764099D01*
X190341476Y-62616890D01*
X190220155Y-62387000D01*
X189027000Y-62387000D01*
X189027000Y-62407000D01*
X188773000Y-62407000D01*
X188773000Y-62387000D01*
X187579845Y-62387000D01*
X187458524Y-62616890D01*
X187503175Y-62764099D01*
X187628359Y-63026920D01*
X187802412Y-63260269D01*
X187886466Y-63336034D01*
X187805820Y-63360498D01*
X187695506Y-63419463D01*
X187598815Y-63498815D01*
X187519463Y-63595506D01*
X187460498Y-63705820D01*
X187424188Y-63825518D01*
X187411928Y-63950000D01*
X183660000Y-63950000D01*
X183660000Y-57033740D01*
X187415000Y-57033740D01*
X187415000Y-57326260D01*
X187472068Y-57613158D01*
X187584010Y-57883411D01*
X187746525Y-58126632D01*
X187953368Y-58333475D01*
X188127760Y-58450000D01*
X187953368Y-58566525D01*
X187746525Y-58773368D01*
X187584010Y-59016589D01*
X187472068Y-59286842D01*
X187415000Y-59573740D01*
X187415000Y-59866260D01*
X187472068Y-60153158D01*
X187584010Y-60423411D01*
X187746525Y-60666632D01*
X187953368Y-60873475D01*
X188135534Y-60995195D01*
X188018645Y-61064822D01*
X187802412Y-61259731D01*
X187628359Y-61493080D01*
X187503175Y-61755901D01*
X187458524Y-61903110D01*
X187579845Y-62133000D01*
X188773000Y-62133000D01*
X188773000Y-62113000D01*
X189027000Y-62113000D01*
X189027000Y-62133000D01*
X190220155Y-62133000D01*
X190341476Y-61903110D01*
X190296825Y-61755901D01*
X190171641Y-61493080D01*
X189997588Y-61259731D01*
X189781355Y-61064822D01*
X189664466Y-60995195D01*
X189846632Y-60873475D01*
X190053475Y-60666632D01*
X190215990Y-60423411D01*
X190327932Y-60153158D01*
X190385000Y-59866260D01*
X190385000Y-59573740D01*
X190327932Y-59286842D01*
X190215990Y-59016589D01*
X190053475Y-58773368D01*
X189846632Y-58566525D01*
X189672240Y-58450000D01*
X189846632Y-58333475D01*
X190053475Y-58126632D01*
X190215990Y-57883411D01*
X190327932Y-57613158D01*
X190385000Y-57326260D01*
X190385000Y-57033740D01*
X190327932Y-56746842D01*
X190215990Y-56476589D01*
X190053475Y-56233368D01*
X189846632Y-56026525D01*
X189603411Y-55864010D01*
X189333158Y-55752068D01*
X189046260Y-55695000D01*
X188753740Y-55695000D01*
X188466842Y-55752068D01*
X188196589Y-55864010D01*
X187953368Y-56026525D01*
X187746525Y-56233368D01*
X187584010Y-56476589D01*
X187472068Y-56746842D01*
X187415000Y-57033740D01*
X183660000Y-57033740D01*
X183660000Y-54660000D01*
X221340000Y-54660000D01*
X221340001Y-108340000D01*
G04 #@! TA.AperFunction,Conductor*
D20*
G36*
X221340001Y-108340000D02*
G01*
X199095393Y-108340000D01*
X199848271Y-107587123D01*
X200088967Y-107635000D01*
X200411033Y-107635000D01*
X200726912Y-107572168D01*
X201024463Y-107448918D01*
X201292252Y-107269987D01*
X201519987Y-107042252D01*
X201698918Y-106774463D01*
X201822168Y-106476912D01*
X201885000Y-106161033D01*
X201885000Y-105838967D01*
X201822168Y-105523088D01*
X201698918Y-105225537D01*
X201519987Y-104957748D01*
X201292252Y-104730013D01*
X201088200Y-104593670D01*
X201088200Y-100906330D01*
X201292252Y-100769987D01*
X201519987Y-100542252D01*
X201698918Y-100274463D01*
X201822168Y-99976912D01*
X201885000Y-99661033D01*
X201885000Y-99338967D01*
X201837123Y-99098271D01*
X202947194Y-97988200D01*
X204127347Y-97988200D01*
X203975537Y-98051082D01*
X203707748Y-98230013D01*
X203480013Y-98457748D01*
X203301082Y-98725537D01*
X203177832Y-99023088D01*
X203115000Y-99338967D01*
X203115000Y-99661033D01*
X203177832Y-99976912D01*
X203301082Y-100274463D01*
X203480013Y-100542252D01*
X203707748Y-100769987D01*
X203911800Y-100906330D01*
X203911801Y-104593669D01*
X203707748Y-104730013D01*
X203480013Y-104957748D01*
X203301082Y-105225537D01*
X203177832Y-105523088D01*
X203115000Y-105838967D01*
X203115000Y-106161033D01*
X203177832Y-106476912D01*
X203301082Y-106774463D01*
X203480013Y-107042252D01*
X203707748Y-107269987D01*
X203975537Y-107448918D01*
X204273088Y-107572168D01*
X204588967Y-107635000D01*
X204911033Y-107635000D01*
X205226912Y-107572168D01*
X205524463Y-107448918D01*
X205792252Y-107269987D01*
X206019987Y-107042252D01*
X206156330Y-106838200D01*
X208428276Y-106838200D01*
X208528320Y-107079727D01*
X208685363Y-107314759D01*
X208885241Y-107514637D01*
X209120273Y-107671680D01*
X209381426Y-107779853D01*
X209658665Y-107835000D01*
X209941335Y-107835000D01*
X210218574Y-107779853D01*
X210479727Y-107671680D01*
X210714759Y-107514637D01*
X210914637Y-107314759D01*
X211071680Y-107079727D01*
X211179853Y-106818574D01*
X211235000Y-106541335D01*
X211235000Y-106258665D01*
X215985000Y-106258665D01*
X215985000Y-106541335D01*
X216040147Y-106818574D01*
X216148320Y-107079727D01*
X216305363Y-107314759D01*
X216505241Y-107514637D01*
X216740273Y-107671680D01*
X217001426Y-107779853D01*
X217278665Y-107835000D01*
X217561335Y-107835000D01*
X217838574Y-107779853D01*
X218099727Y-107671680D01*
X218334759Y-107514637D01*
X218534637Y-107314759D01*
X218691680Y-107079727D01*
X218799853Y-106818574D01*
X218855000Y-106541335D01*
X218855000Y-106258665D01*
X218799853Y-105981426D01*
X218691680Y-105720273D01*
X218534637Y-105485241D01*
X218334759Y-105285363D01*
X218099727Y-105128320D01*
X217838574Y-105020147D01*
X217561335Y-104965000D01*
X217278665Y-104965000D01*
X217001426Y-105020147D01*
X216740273Y-105128320D01*
X216505241Y-105285363D01*
X216305363Y-105485241D01*
X216148320Y-105720273D01*
X216040147Y-105981426D01*
X215985000Y-106258665D01*
X211235000Y-106258665D01*
X211179853Y-105981426D01*
X211071680Y-105720273D01*
X210914637Y-105485241D01*
X210714759Y-105285363D01*
X210638200Y-105234208D01*
X210638200Y-104065792D01*
X210714759Y-104014637D01*
X210914637Y-103814759D01*
X211071680Y-103579727D01*
X211179853Y-103318574D01*
X211235000Y-103041335D01*
X211235000Y-102758665D01*
X215985000Y-102758665D01*
X215985000Y-103041335D01*
X216040147Y-103318574D01*
X216148320Y-103579727D01*
X216305363Y-103814759D01*
X216505241Y-104014637D01*
X216740273Y-104171680D01*
X217001426Y-104279853D01*
X217278665Y-104335000D01*
X217561335Y-104335000D01*
X217838574Y-104279853D01*
X218099727Y-104171680D01*
X218334759Y-104014637D01*
X218534637Y-103814759D01*
X218691680Y-103579727D01*
X218799853Y-103318574D01*
X218855000Y-103041335D01*
X218855000Y-102758665D01*
X218799853Y-102481426D01*
X218691680Y-102220273D01*
X218534637Y-101985241D01*
X218334759Y-101785363D01*
X218099727Y-101628320D01*
X217838574Y-101520147D01*
X217561335Y-101465000D01*
X217278665Y-101465000D01*
X217001426Y-101520147D01*
X216740273Y-101628320D01*
X216505241Y-101785363D01*
X216305363Y-101985241D01*
X216148320Y-102220273D01*
X216040147Y-102481426D01*
X215985000Y-102758665D01*
X211235000Y-102758665D01*
X211179853Y-102481426D01*
X211071680Y-102220273D01*
X210914637Y-101985241D01*
X210714759Y-101785363D01*
X210479727Y-101628320D01*
X210218574Y-101520147D01*
X209941335Y-101465000D01*
X209658665Y-101465000D01*
X209381426Y-101520147D01*
X209120273Y-101628320D01*
X208885241Y-101785363D01*
X208685363Y-101985241D01*
X208528320Y-102220273D01*
X208420147Y-102481426D01*
X208365000Y-102758665D01*
X208365000Y-103041335D01*
X208420147Y-103318574D01*
X208528320Y-103579727D01*
X208685363Y-103814759D01*
X208885241Y-104014637D01*
X208961800Y-104065792D01*
X208961801Y-105161800D01*
X206156330Y-105161800D01*
X206019987Y-104957748D01*
X205792252Y-104730013D01*
X205588200Y-104593670D01*
X205588200Y-100906330D01*
X205792252Y-100769987D01*
X206019987Y-100542252D01*
X206198918Y-100274463D01*
X206322168Y-99976912D01*
X206385000Y-99661033D01*
X206385000Y-99338967D01*
X206322168Y-99023088D01*
X206198918Y-98725537D01*
X206019987Y-98457748D01*
X205792252Y-98230013D01*
X205524463Y-98051082D01*
X205372653Y-97988200D01*
X208311928Y-97988200D01*
X208311928Y-100350000D01*
X208324188Y-100474482D01*
X208360498Y-100594180D01*
X208419463Y-100704494D01*
X208498815Y-100801185D01*
X208595506Y-100880537D01*
X208705820Y-100939502D01*
X208825518Y-100975812D01*
X208950000Y-100988072D01*
X214050000Y-100988072D01*
X214174482Y-100975812D01*
X214294180Y-100939502D01*
X214404494Y-100880537D01*
X214501185Y-100801185D01*
X214580537Y-100704494D01*
X214639502Y-100594180D01*
X214675812Y-100474482D01*
X214688072Y-100350000D01*
X214688072Y-95250000D01*
X214675812Y-95125518D01*
X214639502Y-95005820D01*
X214580537Y-94895506D01*
X214501185Y-94798815D01*
X214404494Y-94719463D01*
X214294180Y-94660498D01*
X214174482Y-94624188D01*
X214050000Y-94611928D01*
X208950000Y-94611928D01*
X208825518Y-94624188D01*
X208705820Y-94660498D01*
X208595506Y-94719463D01*
X208498815Y-94798815D01*
X208419463Y-94895506D01*
X208360498Y-95005820D01*
X208324188Y-95125518D01*
X208311928Y-95250000D01*
X208311928Y-96311800D01*
X202641163Y-96311800D01*
X202600000Y-96307746D01*
X202558837Y-96311800D01*
X202558830Y-96311800D01*
X202435684Y-96323929D01*
X202277683Y-96371858D01*
X202132068Y-96449691D01*
X202004436Y-96554436D01*
X201978194Y-96586412D01*
X200651729Y-97912877D01*
X200411033Y-97865000D01*
X200088967Y-97865000D01*
X199773088Y-97927832D01*
X199475537Y-98051082D01*
X199207748Y-98230013D01*
X198980013Y-98457748D01*
X198801082Y-98725537D01*
X198677832Y-99023088D01*
X198615000Y-99338967D01*
X198615000Y-99661033D01*
X198677832Y-99976912D01*
X198801082Y-100274463D01*
X198980013Y-100542252D01*
X199207748Y-100769987D01*
X199411801Y-100906331D01*
X199411800Y-104593670D01*
X199207748Y-104730013D01*
X198980013Y-104957748D01*
X198801082Y-105225537D01*
X198677832Y-105523088D01*
X198615000Y-105838967D01*
X198615000Y-106161033D01*
X198662877Y-106401729D01*
X197802807Y-107261800D01*
X195287532Y-107261800D01*
X195356671Y-107241514D01*
X195477571Y-106986004D01*
X195546300Y-106711816D01*
X195560217Y-106429488D01*
X195518787Y-106149870D01*
X195423603Y-105883708D01*
X195356671Y-105758486D01*
X195112702Y-105686903D01*
X194299605Y-106500000D01*
X194313748Y-106514143D01*
X194134143Y-106693748D01*
X194120000Y-106679605D01*
X194105858Y-106693748D01*
X193926253Y-106514143D01*
X193940395Y-106500000D01*
X193127298Y-105686903D01*
X192883329Y-105758486D01*
X192852806Y-105822992D01*
X192851680Y-105820273D01*
X192694637Y-105585241D01*
X192616694Y-105507298D01*
X193306903Y-105507298D01*
X194120000Y-106320395D01*
X194933097Y-105507298D01*
X194861514Y-105263329D01*
X194606004Y-105142429D01*
X194331816Y-105073700D01*
X194049488Y-105059783D01*
X193769870Y-105101213D01*
X193503708Y-105196397D01*
X193378486Y-105263329D01*
X193306903Y-105507298D01*
X192616694Y-105507298D01*
X192494759Y-105385363D01*
X192259727Y-105228320D01*
X191998574Y-105120147D01*
X191721335Y-105065000D01*
X191438665Y-105065000D01*
X191161426Y-105120147D01*
X190900273Y-105228320D01*
X190665241Y-105385363D01*
X190465363Y-105585241D01*
X190310000Y-105817759D01*
X190154637Y-105585241D01*
X189954759Y-105385363D01*
X189719727Y-105228320D01*
X189458574Y-105120147D01*
X189181335Y-105065000D01*
X188898665Y-105065000D01*
X188621426Y-105120147D01*
X188360273Y-105228320D01*
X188125241Y-105385363D01*
X187926643Y-105583961D01*
X187925812Y-105575518D01*
X187889502Y-105455820D01*
X187830537Y-105345506D01*
X187751185Y-105248815D01*
X187654494Y-105169463D01*
X187544180Y-105110498D01*
X187424482Y-105074188D01*
X187300000Y-105061928D01*
X185700000Y-105061928D01*
X185575518Y-105074188D01*
X185455820Y-105110498D01*
X185345506Y-105169463D01*
X185248815Y-105248815D01*
X185169463Y-105345506D01*
X185110498Y-105455820D01*
X185074188Y-105575518D01*
X185061928Y-105700000D01*
X185061928Y-107261800D01*
X184947194Y-107261800D01*
X184738200Y-107052807D01*
X184738200Y-98738665D01*
X185065000Y-98738665D01*
X185065000Y-99021335D01*
X185120147Y-99298574D01*
X185228320Y-99559727D01*
X185385363Y-99794759D01*
X185585241Y-99994637D01*
X185820273Y-100151680D01*
X186081426Y-100259853D01*
X186358665Y-100315000D01*
X186641335Y-100315000D01*
X186918574Y-100259853D01*
X187179727Y-100151680D01*
X187414759Y-99994637D01*
X187614637Y-99794759D01*
X187770000Y-99562241D01*
X187925363Y-99794759D01*
X188125241Y-99994637D01*
X188360273Y-100151680D01*
X188621426Y-100259853D01*
X188898665Y-100315000D01*
X189181335Y-100315000D01*
X189458574Y-100259853D01*
X189719727Y-100151680D01*
X189954759Y-99994637D01*
X190154637Y-99794759D01*
X190310000Y-99562241D01*
X190465363Y-99794759D01*
X190665241Y-99994637D01*
X190900273Y-100151680D01*
X191161426Y-100259853D01*
X191438665Y-100315000D01*
X191721335Y-100315000D01*
X191998574Y-100259853D01*
X192259727Y-100151680D01*
X192494759Y-99994637D01*
X192694637Y-99794759D01*
X192850000Y-99562241D01*
X193005363Y-99794759D01*
X193205241Y-99994637D01*
X193440273Y-100151680D01*
X193701426Y-100259853D01*
X193978665Y-100315000D01*
X194261335Y-100315000D01*
X194538574Y-100259853D01*
X194799727Y-100151680D01*
X195034759Y-99994637D01*
X195234637Y-99794759D01*
X195391680Y-99559727D01*
X195499853Y-99298574D01*
X195555000Y-99021335D01*
X195555000Y-98738665D01*
X195499853Y-98461426D01*
X195391680Y-98200273D01*
X195234637Y-97965241D01*
X195034759Y-97765363D01*
X194799727Y-97608320D01*
X194538574Y-97500147D01*
X194261335Y-97445000D01*
X193978665Y-97445000D01*
X193701426Y-97500147D01*
X193440273Y-97608320D01*
X193205241Y-97765363D01*
X193005363Y-97965241D01*
X192850000Y-98197759D01*
X192694637Y-97965241D01*
X192494759Y-97765363D01*
X192259727Y-97608320D01*
X191998574Y-97500147D01*
X191721335Y-97445000D01*
X191438665Y-97445000D01*
X191161426Y-97500147D01*
X190900273Y-97608320D01*
X190665241Y-97765363D01*
X190465363Y-97965241D01*
X190310000Y-98197759D01*
X190154637Y-97965241D01*
X189954759Y-97765363D01*
X189719727Y-97608320D01*
X189458574Y-97500147D01*
X189181335Y-97445000D01*
X188898665Y-97445000D01*
X188621426Y-97500147D01*
X188360273Y-97608320D01*
X188125241Y-97765363D01*
X187925363Y-97965241D01*
X187770000Y-98197759D01*
X187614637Y-97965241D01*
X187414759Y-97765363D01*
X187179727Y-97608320D01*
X186918574Y-97500147D01*
X186641335Y-97445000D01*
X186358665Y-97445000D01*
X186081426Y-97500147D01*
X185820273Y-97608320D01*
X185585241Y-97765363D01*
X185385363Y-97965241D01*
X185228320Y-98200273D01*
X185120147Y-98461426D01*
X185065000Y-98738665D01*
X184738200Y-98738665D01*
X184738200Y-91751830D01*
X204927775Y-91751830D01*
X205971590Y-92825270D01*
X207604451Y-93753449D01*
X209387016Y-94345238D01*
X211250782Y-94577894D01*
X213124125Y-94442478D01*
X214935054Y-93944192D01*
X216613976Y-93102186D01*
X217028410Y-92825270D01*
X218072225Y-91751830D01*
X211500000Y-85179605D01*
X204927775Y-91751830D01*
X184738200Y-91751830D01*
X184738200Y-87747193D01*
X187734611Y-84750782D01*
X201922106Y-84750782D01*
X202057522Y-86624125D01*
X202555808Y-88435054D01*
X203397814Y-90113976D01*
X203674730Y-90528410D01*
X204748170Y-91572225D01*
X211320395Y-85000000D01*
X211679605Y-85000000D01*
X218251830Y-91572225D01*
X219325270Y-90528410D01*
X220253449Y-88895549D01*
X220845238Y-87112984D01*
X221077894Y-85249218D01*
X220942478Y-83375875D01*
X220444192Y-81564946D01*
X219602186Y-79886024D01*
X219325270Y-79471590D01*
X218251830Y-78427775D01*
X211679605Y-85000000D01*
X211320395Y-85000000D01*
X204748170Y-78427775D01*
X203674730Y-79471590D01*
X202746551Y-81104451D01*
X202154762Y-82887016D01*
X201922106Y-84750782D01*
X187734611Y-84750782D01*
X194237223Y-78248170D01*
X204927775Y-78248170D01*
X211500000Y-84820395D01*
X218072225Y-78248170D01*
X217028410Y-77174730D01*
X215395549Y-76246551D01*
X213612984Y-75654762D01*
X211749218Y-75422106D01*
X209875875Y-75557522D01*
X208064946Y-76055808D01*
X206386024Y-76897814D01*
X205971590Y-77174730D01*
X204927775Y-78248170D01*
X194237223Y-78248170D01*
X197147194Y-75338200D01*
X207258837Y-75338200D01*
X207300000Y-75342254D01*
X207341163Y-75338200D01*
X207341170Y-75338200D01*
X207464316Y-75326071D01*
X207622317Y-75278142D01*
X207767932Y-75200309D01*
X207895564Y-75095564D01*
X207921811Y-75063582D01*
X208311928Y-74673465D01*
X208311928Y-74750000D01*
X208324188Y-74874482D01*
X208360498Y-74994180D01*
X208419463Y-75104494D01*
X208498815Y-75201185D01*
X208595506Y-75280537D01*
X208705820Y-75339502D01*
X208825518Y-75375812D01*
X208950000Y-75388072D01*
X214050000Y-75388072D01*
X214174482Y-75375812D01*
X214294180Y-75339502D01*
X214404494Y-75280537D01*
X214501185Y-75201185D01*
X214580537Y-75104494D01*
X214639502Y-74994180D01*
X214675812Y-74874482D01*
X214688072Y-74750000D01*
X214688072Y-69650000D01*
X214675812Y-69525518D01*
X214639502Y-69405820D01*
X214580537Y-69295506D01*
X214501185Y-69198815D01*
X214404494Y-69119463D01*
X214294180Y-69060498D01*
X214174482Y-69024188D01*
X214050000Y-69011928D01*
X208950000Y-69011928D01*
X208825518Y-69024188D01*
X208705820Y-69060498D01*
X208595506Y-69119463D01*
X208498815Y-69198815D01*
X208419463Y-69295506D01*
X208360498Y-69405820D01*
X208324188Y-69525518D01*
X208311928Y-69650000D01*
X208311928Y-72302678D01*
X206952807Y-73661800D01*
X196841163Y-73661800D01*
X196800000Y-73657746D01*
X196758837Y-73661800D01*
X196758830Y-73661800D01*
X196635684Y-73673929D01*
X196477683Y-73721858D01*
X196332068Y-73799691D01*
X196204436Y-73904436D01*
X196178194Y-73936412D01*
X183660000Y-86454607D01*
X183660000Y-71250000D01*
X197211928Y-71250000D01*
X197224188Y-71374482D01*
X197260498Y-71494180D01*
X197319463Y-71604494D01*
X197398815Y-71701185D01*
X197495506Y-71780537D01*
X197605820Y-71839502D01*
X197725518Y-71875812D01*
X197850000Y-71888072D01*
X198414250Y-71885000D01*
X198573000Y-71726250D01*
X198573000Y-70527000D01*
X197373750Y-70527000D01*
X197215000Y-70685750D01*
X197211928Y-71250000D01*
X183660000Y-71250000D01*
X183660000Y-69550000D01*
X197211928Y-69550000D01*
X197215000Y-70114250D01*
X197373750Y-70273000D01*
X198573000Y-70273000D01*
X198573000Y-69073750D01*
X198827000Y-69073750D01*
X198827000Y-70273000D01*
X198847000Y-70273000D01*
X198847000Y-70527000D01*
X198827000Y-70527000D01*
X198827000Y-71726250D01*
X198985750Y-71885000D01*
X199550000Y-71888072D01*
X199674482Y-71875812D01*
X199794180Y-71839502D01*
X199904494Y-71780537D01*
X200001185Y-71701185D01*
X200080537Y-71604494D01*
X200139502Y-71494180D01*
X200161513Y-71421620D01*
X200293368Y-71553475D01*
X200536589Y-71715990D01*
X200806842Y-71827932D01*
X201093740Y-71885000D01*
X201386260Y-71885000D01*
X201673158Y-71827932D01*
X201943411Y-71715990D01*
X202186632Y-71553475D01*
X202393475Y-71346632D01*
X202510000Y-71172240D01*
X202626525Y-71346632D01*
X202833368Y-71553475D01*
X203076589Y-71715990D01*
X203346842Y-71827932D01*
X203633740Y-71885000D01*
X203926260Y-71885000D01*
X204213158Y-71827932D01*
X204483411Y-71715990D01*
X204726632Y-71553475D01*
X204933475Y-71346632D01*
X205050000Y-71172240D01*
X205166525Y-71346632D01*
X205373368Y-71553475D01*
X205616589Y-71715990D01*
X205886842Y-71827932D01*
X206173740Y-71885000D01*
X206466260Y-71885000D01*
X206753158Y-71827932D01*
X207023411Y-71715990D01*
X207266632Y-71553475D01*
X207473475Y-71346632D01*
X207635990Y-71103411D01*
X207747932Y-70833158D01*
X207805000Y-70546260D01*
X207805000Y-70253740D01*
X207747932Y-69966842D01*
X207635990Y-69696589D01*
X207473475Y-69453368D01*
X207266632Y-69246525D01*
X207158200Y-69174073D01*
X207158200Y-63527193D01*
X207485393Y-63200000D01*
X210561928Y-63200000D01*
X210561928Y-64800000D01*
X210574188Y-64924482D01*
X210610498Y-65044180D01*
X210669463Y-65154494D01*
X210748815Y-65251185D01*
X210845506Y-65330537D01*
X210955820Y-65389502D01*
X211075518Y-65425812D01*
X211200000Y-65438072D01*
X212800000Y-65438072D01*
X212924482Y-65425812D01*
X213044180Y-65389502D01*
X213154494Y-65330537D01*
X213251185Y-65251185D01*
X213330537Y-65154494D01*
X213389502Y-65044180D01*
X213425812Y-64924482D01*
X213438072Y-64800000D01*
X213438072Y-63200000D01*
X213425812Y-63075518D01*
X213389502Y-62955820D01*
X213330537Y-62845506D01*
X213251185Y-62748815D01*
X213154494Y-62669463D01*
X213044180Y-62610498D01*
X212924482Y-62574188D01*
X212800000Y-62561928D01*
X211200000Y-62561928D01*
X211075518Y-62574188D01*
X210955820Y-62610498D01*
X210845506Y-62669463D01*
X210748815Y-62748815D01*
X210669463Y-62845506D01*
X210610498Y-62955820D01*
X210574188Y-63075518D01*
X210561928Y-63200000D01*
X207485393Y-63200000D01*
X208339409Y-62345984D01*
X208385363Y-62414759D01*
X208585241Y-62614637D01*
X208820273Y-62771680D01*
X209081426Y-62879853D01*
X209358665Y-62935000D01*
X209641335Y-62935000D01*
X209918574Y-62879853D01*
X210179727Y-62771680D01*
X210414759Y-62614637D01*
X210536694Y-62492702D01*
X213686903Y-62492702D01*
X213758486Y-62736671D01*
X214013996Y-62857571D01*
X214288184Y-62926300D01*
X214570512Y-62940217D01*
X214850130Y-62898787D01*
X215116292Y-62803603D01*
X215241514Y-62736671D01*
X215313097Y-62492702D01*
X214500000Y-61679605D01*
X213686903Y-62492702D01*
X210536694Y-62492702D01*
X210614637Y-62414759D01*
X210771680Y-62179727D01*
X210879853Y-61918574D01*
X210935000Y-61641335D01*
X210935000Y-61570512D01*
X213059783Y-61570512D01*
X213101213Y-61850130D01*
X213196397Y-62116292D01*
X213263329Y-62241514D01*
X213507298Y-62313097D01*
X214320395Y-61500000D01*
X214679605Y-61500000D01*
X215492702Y-62313097D01*
X215736671Y-62241514D01*
X215857571Y-61986004D01*
X215926300Y-61711816D01*
X215940217Y-61429488D01*
X215898787Y-61149870D01*
X215803603Y-60883708D01*
X215736671Y-60758486D01*
X215492702Y-60686903D01*
X214679605Y-61500000D01*
X214320395Y-61500000D01*
X213507298Y-60686903D01*
X213263329Y-60758486D01*
X213142429Y-61013996D01*
X213073700Y-61288184D01*
X213059783Y-61570512D01*
X210935000Y-61570512D01*
X210935000Y-61358665D01*
X210879853Y-61081426D01*
X210771680Y-60820273D01*
X210614637Y-60585241D01*
X210536694Y-60507298D01*
X213686903Y-60507298D01*
X214500000Y-61320395D01*
X215313097Y-60507298D01*
X215241514Y-60263329D01*
X214986004Y-60142429D01*
X214711816Y-60073700D01*
X214429488Y-60059783D01*
X214149870Y-60101213D01*
X213883708Y-60196397D01*
X213758486Y-60263329D01*
X213686903Y-60507298D01*
X210536694Y-60507298D01*
X210414759Y-60385363D01*
X210179727Y-60228320D01*
X209918574Y-60120147D01*
X209641335Y-60065000D01*
X209358665Y-60065000D01*
X209081426Y-60120147D01*
X208820273Y-60228320D01*
X208585241Y-60385363D01*
X208385363Y-60585241D01*
X208334208Y-60661800D01*
X208041163Y-60661800D01*
X208000000Y-60657746D01*
X207958837Y-60661800D01*
X207958830Y-60661800D01*
X207835684Y-60673929D01*
X207677683Y-60721858D01*
X207532068Y-60799691D01*
X207404436Y-60904436D01*
X207378194Y-60936413D01*
X205756418Y-62558189D01*
X205724436Y-62584436D01*
X205619691Y-62712069D01*
X205541858Y-62857684D01*
X205493929Y-63015685D01*
X205481800Y-63138831D01*
X205481800Y-63138837D01*
X205477746Y-63180000D01*
X205481800Y-63221163D01*
X205481801Y-69174073D01*
X205373368Y-69246525D01*
X205166525Y-69453368D01*
X205050000Y-69627760D01*
X204933475Y-69453368D01*
X204726632Y-69246525D01*
X204483411Y-69084010D01*
X204213158Y-68972068D01*
X203926260Y-68915000D01*
X203633740Y-68915000D01*
X203346842Y-68972068D01*
X203076589Y-69084010D01*
X202833368Y-69246525D01*
X202626525Y-69453368D01*
X202510000Y-69627760D01*
X202393475Y-69453368D01*
X202186632Y-69246525D01*
X202078200Y-69174073D01*
X202078200Y-61907193D01*
X204847194Y-59138200D01*
X210565000Y-59138200D01*
X210565000Y-59141335D01*
X210620147Y-59418574D01*
X210728320Y-59679727D01*
X210885363Y-59914759D01*
X211085241Y-60114637D01*
X211320273Y-60271680D01*
X211581426Y-60379853D01*
X211858665Y-60435000D01*
X212141335Y-60435000D01*
X212418574Y-60379853D01*
X212679727Y-60271680D01*
X212914759Y-60114637D01*
X213114637Y-59914759D01*
X213271680Y-59679727D01*
X213379853Y-59418574D01*
X213435000Y-59141335D01*
X213435000Y-58858665D01*
X213379853Y-58581426D01*
X213271680Y-58320273D01*
X213114637Y-58085241D01*
X212914759Y-57885363D01*
X212679727Y-57728320D01*
X212418574Y-57620147D01*
X212141335Y-57565000D01*
X211858665Y-57565000D01*
X211745240Y-57587562D01*
X211622317Y-57521858D01*
X211464316Y-57473929D01*
X211341170Y-57461800D01*
X211341163Y-57461800D01*
X211300000Y-57457746D01*
X211258837Y-57461800D01*
X204541159Y-57461800D01*
X204499999Y-57457746D01*
X204458839Y-57461800D01*
X204458830Y-57461800D01*
X204335684Y-57473929D01*
X204177683Y-57521858D01*
X204032068Y-57599691D01*
X203904436Y-57704436D01*
X203878194Y-57736412D01*
X200676413Y-60938194D01*
X200644437Y-60964436D01*
X200618195Y-60996412D01*
X200618192Y-60996415D01*
X200539691Y-61092069D01*
X200461858Y-61237684D01*
X200413929Y-61395685D01*
X200397746Y-61560000D01*
X200401801Y-61601173D01*
X200401800Y-69174073D01*
X200293368Y-69246525D01*
X200161513Y-69378380D01*
X200139502Y-69305820D01*
X200080537Y-69195506D01*
X200001185Y-69098815D01*
X199904494Y-69019463D01*
X199794180Y-68960498D01*
X199674482Y-68924188D01*
X199550000Y-68911928D01*
X198985750Y-68915000D01*
X198827000Y-69073750D01*
X198573000Y-69073750D01*
X198414250Y-68915000D01*
X197850000Y-68911928D01*
X197725518Y-68924188D01*
X197605820Y-68960498D01*
X197495506Y-69019463D01*
X197398815Y-69098815D01*
X197319463Y-69195506D01*
X197260498Y-69305820D01*
X197224188Y-69425518D01*
X197211928Y-69550000D01*
X183660000Y-69550000D01*
X183660000Y-63950000D01*
X187411928Y-63950000D01*
X187411928Y-65650000D01*
X187424188Y-65774482D01*
X187460498Y-65894180D01*
X187519463Y-66004494D01*
X187598815Y-66101185D01*
X187695506Y-66180537D01*
X187805820Y-66239502D01*
X187925518Y-66275812D01*
X188050000Y-66288072D01*
X189750000Y-66288072D01*
X189874482Y-66275812D01*
X189994180Y-66239502D01*
X190104494Y-66180537D01*
X190201185Y-66101185D01*
X190280537Y-66004494D01*
X190339502Y-65894180D01*
X190375812Y-65774482D01*
X190388072Y-65650000D01*
X190388072Y-63950000D01*
X190375812Y-63825518D01*
X190339502Y-63705820D01*
X190280537Y-63595506D01*
X190201185Y-63498815D01*
X190104494Y-63419463D01*
X189994180Y-63360498D01*
X189913534Y-63336034D01*
X189997588Y-63260269D01*
X190171641Y-63026920D01*
X190296825Y-62764099D01*
X190341476Y-62616890D01*
X190220155Y-62387000D01*
X189027000Y-62387000D01*
X189027000Y-62407000D01*
X188773000Y-62407000D01*
X188773000Y-62387000D01*
X187579845Y-62387000D01*
X187458524Y-62616890D01*
X187503175Y-62764099D01*
X187628359Y-63026920D01*
X187802412Y-63260269D01*
X187886466Y-63336034D01*
X187805820Y-63360498D01*
X187695506Y-63419463D01*
X187598815Y-63498815D01*
X187519463Y-63595506D01*
X187460498Y-63705820D01*
X187424188Y-63825518D01*
X187411928Y-63950000D01*
X183660000Y-63950000D01*
X183660000Y-57033740D01*
X187415000Y-57033740D01*
X187415000Y-57326260D01*
X187472068Y-57613158D01*
X187584010Y-57883411D01*
X187746525Y-58126632D01*
X187953368Y-58333475D01*
X188127760Y-58450000D01*
X187953368Y-58566525D01*
X187746525Y-58773368D01*
X187584010Y-59016589D01*
X187472068Y-59286842D01*
X187415000Y-59573740D01*
X187415000Y-59866260D01*
X187472068Y-60153158D01*
X187584010Y-60423411D01*
X187746525Y-60666632D01*
X187953368Y-60873475D01*
X188135534Y-60995195D01*
X188018645Y-61064822D01*
X187802412Y-61259731D01*
X187628359Y-61493080D01*
X187503175Y-61755901D01*
X187458524Y-61903110D01*
X187579845Y-62133000D01*
X188773000Y-62133000D01*
X188773000Y-62113000D01*
X189027000Y-62113000D01*
X189027000Y-62133000D01*
X190220155Y-62133000D01*
X190341476Y-61903110D01*
X190296825Y-61755901D01*
X190171641Y-61493080D01*
X189997588Y-61259731D01*
X189781355Y-61064822D01*
X189664466Y-60995195D01*
X189846632Y-60873475D01*
X190053475Y-60666632D01*
X190215990Y-60423411D01*
X190327932Y-60153158D01*
X190385000Y-59866260D01*
X190385000Y-59573740D01*
X190327932Y-59286842D01*
X190215990Y-59016589D01*
X190053475Y-58773368D01*
X189846632Y-58566525D01*
X189672240Y-58450000D01*
X189846632Y-58333475D01*
X190053475Y-58126632D01*
X190215990Y-57883411D01*
X190327932Y-57613158D01*
X190385000Y-57326260D01*
X190385000Y-57033740D01*
X190327932Y-56746842D01*
X190215990Y-56476589D01*
X190053475Y-56233368D01*
X189846632Y-56026525D01*
X189603411Y-55864010D01*
X189333158Y-55752068D01*
X189046260Y-55695000D01*
X188753740Y-55695000D01*
X188466842Y-55752068D01*
X188196589Y-55864010D01*
X187953368Y-56026525D01*
X187746525Y-56233368D01*
X187584010Y-56476589D01*
X187472068Y-56746842D01*
X187415000Y-57033740D01*
X183660000Y-57033740D01*
X183660000Y-54660000D01*
X221340000Y-54660000D01*
X221340001Y-108340000D01*
G37*
G04 #@! TD.AperFunction*
M02*
