G04 #@! TF.GenerationSoftware,KiCad,Pcbnew,(5.1.9)-1*
G04 #@! TF.CreationDate,2024-02-11T16:08:00+01:00*
G04 #@! TF.ProjectId,tiny_dt_0,74696e79-5f64-4745-9f30-2e6b69636164,rev?*
G04 #@! TF.SameCoordinates,Original*
G04 #@! TF.FileFunction,Copper,L1,Top*
G04 #@! TF.FilePolarity,Positive*
%FSLAX46Y46*%
G04 Gerber Fmt 4.6, Leading zero omitted, Abs format (unit mm)*
G04 Created by KiCad (PCBNEW (5.1.9)-1) date 2024-02-11 16:08:00*
%MOMM*%
%LPD*%
G01*
G04 APERTURE LIST*
G04 #@! TA.AperFunction,ComponentPad*
%ADD10C,2.000000*%
G04 #@! TD*
G04 #@! TA.AperFunction,ComponentPad*
%ADD11C,1.600000*%
G04 #@! TD*
G04 #@! TA.AperFunction,ComponentPad*
%ADD12R,1.600000X1.600000*%
G04 #@! TD*
G04 #@! TA.AperFunction,ComponentPad*
%ADD13O,1.600000X1.600000*%
G04 #@! TD*
G04 #@! TA.AperFunction,ComponentPad*
%ADD14O,1.700000X1.700000*%
G04 #@! TD*
G04 #@! TA.AperFunction,ComponentPad*
%ADD15R,1.700000X1.700000*%
G04 #@! TD*
G04 #@! TA.AperFunction,Conductor*
%ADD16C,0.406400*%
G04 #@! TD*
G04 APERTURE END LIST*
D10*
X200250000Y-99500000D03*
X204750000Y-99500000D03*
X200250000Y-106000000D03*
X204750000Y-106000000D03*
D11*
X214500000Y-61500000D03*
X212000000Y-59000000D03*
X209500000Y-61500000D03*
D12*
X212000000Y-64000000D03*
D11*
X186500000Y-98880000D03*
X189040000Y-98880000D03*
X191580000Y-98880000D03*
X194120000Y-98880000D03*
X194120000Y-106500000D03*
X191580000Y-106500000D03*
X189040000Y-106500000D03*
D12*
X186500000Y-106500000D03*
D13*
X217420000Y-102900000D03*
D11*
X209800000Y-102900000D03*
D13*
X217420000Y-106400000D03*
D11*
X209800000Y-106400000D03*
D14*
X188900000Y-57180000D03*
X188900000Y-59720000D03*
X188900000Y-62260000D03*
D15*
X188900000Y-64800000D03*
D14*
X206320000Y-70400000D03*
X203780000Y-70400000D03*
X201240000Y-70400000D03*
D15*
X198700000Y-70400000D03*
D16*
X204750000Y-99500000D02*
X202750000Y-101500000D01*
X202750000Y-101500000D02*
X188300000Y-101500000D01*
X186500000Y-99700000D02*
X186500000Y-98880000D01*
X188300000Y-101500000D02*
X186500000Y-99700000D01*
X186500000Y-67200000D02*
X188900000Y-64800000D01*
X186500000Y-98880000D02*
X186500000Y-67200000D01*
X188900000Y-64800000D02*
X197500000Y-64800000D01*
X201240000Y-68540000D02*
X201240000Y-70400000D01*
X197500000Y-64800000D02*
X201240000Y-68540000D01*
X217420000Y-106400000D02*
X215100000Y-106400000D01*
X215100000Y-106400000D02*
X213200000Y-104500000D01*
X213200000Y-104500000D02*
X207500000Y-104500000D01*
X207500000Y-104500000D02*
X207100000Y-104100000D01*
X207100000Y-104100000D02*
X207100000Y-98200000D01*
X207100000Y-98200000D02*
X206500000Y-97600000D01*
X206500000Y-97600000D02*
X197200000Y-97600000D01*
X195920000Y-98880000D02*
X194120000Y-98880000D01*
X197200000Y-97600000D02*
X195920000Y-98880000D01*
X217420000Y-106400000D02*
X219400000Y-106400000D01*
X219400000Y-106400000D02*
X220100000Y-105700000D01*
X220100000Y-105700000D02*
X220100000Y-100600000D01*
X220100000Y-100600000D02*
X215700000Y-96200000D01*
X215700000Y-96200000D02*
X213100000Y-96200000D01*
X213100000Y-96200000D02*
X210900000Y-94000000D01*
X210900000Y-94000000D02*
X210900000Y-83600000D01*
X206320000Y-79020000D02*
X206320000Y-70400000D01*
X210900000Y-83600000D02*
X206320000Y-79020000D01*
X209500000Y-61500000D02*
X205000000Y-61500000D01*
X200680000Y-57180000D02*
X188900000Y-57180000D01*
X205000000Y-61500000D02*
X200680000Y-57180000D01*
X190300000Y-96000000D02*
X189040000Y-97260000D01*
X189040000Y-97260000D02*
X189040000Y-98880000D01*
X208900000Y-96400000D02*
X208500000Y-96000000D01*
X208900000Y-101500000D02*
X208900000Y-96400000D01*
X213500000Y-101500000D02*
X208900000Y-101500000D01*
X208500000Y-96000000D02*
X190300000Y-96000000D01*
X214900000Y-102900000D02*
X213500000Y-101500000D01*
X217420000Y-102900000D02*
X214900000Y-102900000D01*
X208500000Y-96000000D02*
X208500000Y-85900000D01*
X203780000Y-81180000D02*
X203780000Y-70400000D01*
X208500000Y-85900000D02*
X203780000Y-81180000D01*
X188900000Y-59720000D02*
X192220000Y-59720000D01*
X192220000Y-59720000D02*
X195100000Y-62600000D01*
X195100000Y-62600000D02*
X198100000Y-62600000D01*
X203780000Y-68280000D02*
X203780000Y-70400000D01*
X198100000Y-62600000D02*
X203780000Y-68280000D01*
X203780000Y-68280000D02*
X204720000Y-68280000D01*
X209000000Y-64000000D02*
X212000000Y-64000000D01*
X204720000Y-68280000D02*
X209000000Y-64000000D01*
M02*
